<?xml version="1.0" encoding="utf-8"?>
<!-- Generator: Adobe Illustrator 16.0.0, SVG Export Plug-In . SVG Version: 6.00 Build 0)  -->
<!DOCTYPE svg PUBLIC "-//W3C//DTD SVG 1.1//EN" "http://www.w3.org/Graphics/SVG/1.1/DTD/svg11.dtd">
<svg version="1.1" xmlns="http://www.w3.org/2000/svg" xmlns:xlink="http://www.w3.org/1999/xlink" x="0px" y="0px"
	 width="841.89px" height="595.28px" viewBox="0 0 841.89 595.28" enable-background="new 0 0 841.89 595.28" xml:space="preserve">
<g id="Capa_1">
	<g>
		<polygon fill="#7E22CE" points="0,0 81.816,0 0,177.234 		"/>
		<polygon fill="#0F172A" points="0,187.761 48.422,287.763 0,386.713 		"/>
		<polygon fill="#0F172A" points="0,461.451 81.816,595 0,595 		"/>
		<polygon fill="#334155" points="140.765,595 81.816,595 0,461.451 0,386.713 28.776,328.08 		"/>
	</g>
	<g>
		<polygon fill="#7E22CE" points="842,595 759.838,595 842,417.906 		"/>
		<polygon fill="#0F172A" points="842,407.379 793.578,307.377 842,208.427 		"/>
		<polygon fill="#0F172A" points="842,133.689 759.838,0 842,0 		"/>
		<polygon fill="#334155" points="700.89,0 759.838,0 842,133.689 842,208.427 813.051,266.99 		"/>
	</g>
</g>
<g id="Capa_2">
</g>
</svg>
