<?xml version="1.0" encoding="utf-8"?>
<!-- Generator: Adobe Illustrator 16.0.0, SVG Export Plug-In . SVG Version: 6.00 Build 0)  -->
<!DOCTYPE svg PUBLIC "-//W3C//DTD SVG 1.1//EN" "http://www.w3.org/Graphics/SVG/1.1/DTD/svg11.dtd">
<svg version="1.1" id="logo-9" xmlns="http://www.w3.org/2000/svg" xmlns:xlink="http://www.w3.org/1999/xlink" x="0px" y="0px"
	 width="136.328px" height="40px" viewBox="0 0 136.328 40" enable-background="new 0 0 136.328 40" xml:space="preserve">
<g>
	<path fill="#7E22CE" d="M24.496,12.184c0.381,0.208,0.809,0.32,1.243,0.325c0.601,0,0.935-0.281,0.935-0.698
		s-0.259-0.619-0.913-0.852c-0.843-0.308-1.384-0.756-1.384-1.494c0-0.838,0.698-1.476,1.809-1.476
		c0.426-0.012,0.849,0.075,1.234,0.255L27.192,9c-0.313-0.161-0.659-0.243-1.011-0.242c-0.596,0-0.877,0.316-0.877,0.614
		c0,0.396,0.299,0.58,0.984,0.844c0.877,0.338,1.317,0.786,1.317,1.523c0,0.821-0.624,1.538-1.949,1.538
		c-0.481,0.005-0.958-0.105-1.388-0.321L24.496,12.184z"/>
	<path fill="#7E22CE" d="M29.143,11.604c0.022,0.668,0.548,0.957,1.142,0.957c0.35,0.009,0.698-0.047,1.028-0.167l0.136,0.646
		c-0.413,0.159-0.851,0.237-1.292,0.229c-0.967,0.09-1.823-0.62-1.912-1.587c-0.01-0.094-0.01-0.189-0.004-0.283
		c0-1.028,0.629-1.994,1.814-1.994c1.187,0,1.599,0.988,1.599,1.805c0.002,0.132-0.008,0.265-0.03,0.396h-2.481V11.604z
		 M30.771,10.95c0.061-0.438-0.244-0.841-0.681-0.902c-0.029-0.004-0.057-0.006-0.086-0.007c-0.488,0.021-0.874,0.42-0.879,0.909
		H30.771z"/>
	<path fill="#7E22CE" d="M35.797,9.496c0,0.25-0.031,0.554-0.031,1.063v2.104c0,0.777-0.159,1.317-0.545,1.682
		c-0.408,0.313-0.917,0.47-1.432,0.439c-0.449,0.013-0.896-0.088-1.295-0.294l0.206-0.711c0.33,0.187,0.702,0.284,1.081,0.286
		c0.544,0.049,1.024-0.353,1.073-0.896c0.007-0.075,0.005-0.15-0.005-0.225v-0.322l0,0c-0.242,0.358-0.65,0.565-1.082,0.549
		c-0.921,0-1.576-0.764-1.576-1.814c0-1.216,0.79-1.954,1.682-1.954c0.438-0.025,0.853,0.197,1.075,0.575l0,0l0.019-0.483
		L35.797,9.496L35.797,9.496z M34.83,10.98c0.001-0.084-0.009-0.168-0.031-0.25c-0.081-0.354-0.396-0.604-0.76-0.602
		c-0.526,0-0.913,0.439-0.913,1.207c0,0.632,0.321,1.143,0.904,1.143c0.349,0,0.658-0.228,0.761-0.563
		c0.025-0.109,0.039-0.221,0.039-0.333V10.98z"/>
	<path fill="#7E22CE" d="M40.093,12.091c0,0.439,0,0.808,0.031,1.111h-0.822l-0.044-0.562l0,0c-0.247,0.416-0.702,0.664-1.185,0.646
		c-0.678,0-1.318-0.404-1.318-1.612V9.479h0.936v2.016c0,0.619,0.197,1.015,0.693,1.015c0.312,0,0.592-0.182,0.72-0.465
		c0.036-0.093,0.053-0.191,0.053-0.291V9.496h0.936V12.091z"/>
	<path fill="#7E22CE" d="M41.116,10.69c0-0.505,0-0.878-0.03-1.194h0.816l0.031,0.707h0.03c0.132-0.453,0.54-0.771,1.011-0.79
		c0.076-0.002,0.15,0.005,0.225,0.022v0.878c-0.091-0.018-0.184-0.028-0.277-0.03c-0.417-0.009-0.778,0.293-0.839,0.708
		c-0.018,0.095-0.028,0.192-0.032,0.289v1.919h-0.935V10.69z"/>
	<path fill="#7E22CE" d="M44.818,8.459c0.008,0.274-0.208,0.503-0.481,0.512c-0.019,0-0.037,0-0.055-0.002
		c-0.271,0.022-0.508-0.18-0.53-0.451c-0.001-0.02-0.002-0.039-0.001-0.059c0-0.291,0.237-0.526,0.528-0.525
		c0.29,0,0.525,0.235,0.525,0.525H44.818z M43.822,13.202V9.496h0.943v3.706H43.822z"/>
	<path fill="#7E22CE" d="M49.188,7.796v4.361c0,0.382,0,0.794,0.031,1.045H48.38l-0.039-0.588l0,0
		c-0.245,0.436-0.714,0.696-1.213,0.672c-0.878,0-1.581-0.755-1.581-1.897c0-1.238,0.768-1.976,1.66-1.976
		c0.408-0.031,0.802,0.154,1.041,0.487l0,0V7.796H49.188z M48.252,11.042c0-0.083-0.009-0.166-0.026-0.246
		c-0.074-0.386-0.412-0.664-0.803-0.663c-0.602,0-0.94,0.536-0.94,1.225c0,0.69,0.338,1.173,0.931,1.173
		c0.391,0,0.729-0.276,0.808-0.659c0.022-0.09,0.032-0.183,0.031-0.276L48.252,11.042L48.252,11.042z"/>
	<path fill="#7E22CE" d="M52.281,13.202l-0.062-0.412h-0.022c-0.27,0.326-0.675,0.509-1.098,0.497
		c-0.605,0.037-1.126-0.425-1.162-1.03c-0.002-0.024-0.002-0.049-0.002-0.072c0-0.94,0.83-1.41,2.196-1.401v-0.058
		c0-0.246-0.097-0.65-0.755-0.65c-0.351,0.001-0.696,0.097-0.998,0.277l-0.18-0.61c0.411-0.224,0.873-0.336,1.339-0.326
		c1.186,0,1.529,0.751,1.529,1.56v1.318c-0.002,0.292,0.016,0.586,0.053,0.876L52.281,13.202z M52.158,11.389
		c-0.664,0-1.292,0.132-1.292,0.694c-0.025,0.269,0.171,0.505,0.439,0.531c0.031,0.003,0.062,0.003,0.092,0
		c0.328,0.007,0.623-0.199,0.729-0.509c0.022-0.066,0.033-0.137,0.03-0.206v-0.51H52.158z"/>
	<path fill="#7E22CE" d="M57.48,7.796v4.361c0,0.382,0,0.794,0.03,1.045h-0.834l-0.04-0.588l0,0
		c-0.244,0.435-0.71,0.694-1.208,0.672c-0.878,0-1.585-0.755-1.585-1.897c0-1.238,0.769-1.976,1.66-1.976
		c0.41-0.029,0.805,0.155,1.045,0.487l0,0V7.796H57.48z M56.544,11.042c0.007-0.082,0.007-0.164,0-0.246
		c-0.076-0.386-0.415-0.664-0.808-0.663c-0.602,0-0.936,0.536-0.936,1.225c0,0.69,0.334,1.173,0.927,1.173
		c0.391,0,0.729-0.276,0.808-0.659c0.021-0.09,0.032-0.183,0.03-0.276L56.544,11.042z"/>
	<path fill="#7E22CE" d="M60.653,9.496l0.666,1.985c0.081,0.228,0.154,0.508,0.208,0.725h0.022c0.061-0.216,0.132-0.488,0.198-0.734
		l0.579-1.976h1.006l-0.925,2.547c-0.515,1.388-0.857,2.002-1.296,2.384c-0.273,0.252-0.615,0.42-0.984,0.479l-0.211-0.791
		c0.198-0.052,0.383-0.14,0.549-0.259c0.214-0.154,0.388-0.355,0.509-0.589c0.034-0.05,0.054-0.106,0.061-0.166
		c-0.002-0.065-0.022-0.126-0.056-0.181l-1.353-3.403L60.653,9.496z"/>
	<path fill="#7E22CE" d="M65.466,12.184c0.379,0.208,0.806,0.32,1.238,0.325c0.603,0,0.939-0.281,0.939-0.698
		s-0.259-0.619-0.913-0.852c-0.848-0.308-1.389-0.756-1.389-1.494c0-0.838,0.702-1.476,1.813-1.476
		c0.428-0.012,0.851,0.076,1.235,0.255L68.161,9c-0.315-0.161-0.668-0.244-1.023-0.242c-0.594,0-0.852,0.316-0.852,0.614
		c0,0.396,0.297,0.58,0.983,0.844c0.879,0.338,1.319,0.786,1.319,1.524c0,0.821-0.625,1.538-1.946,1.538
		c-0.481,0.006-0.958-0.104-1.389-0.321L65.466,12.184z"/>
	<path fill="#7E22CE" d="M71.536,13.202l-0.063-0.412h-0.021c-0.271,0.325-0.676,0.508-1.099,0.497
		c-0.604,0.037-1.126-0.425-1.161-1.03c0-0.024-0.004-0.049-0.004-0.072c0-0.94,0.83-1.41,2.197-1.401v-0.058
		c0-0.246-0.1-0.65-0.758-0.65c-0.348,0-0.694,0.096-0.995,0.277l-0.181-0.61c0.41-0.224,0.873-0.336,1.34-0.326
		c1.188,0,1.529,0.751,1.529,1.56v1.318c-0.006,0.293,0.012,0.587,0.053,0.877L71.536,13.202z M71.418,11.389
		c-0.66,0-1.293,0.132-1.293,0.694c-0.024,0.271,0.176,0.509,0.447,0.532c0.028,0.002,0.059,0.001,0.088-0.001
		c0.326,0.007,0.621-0.199,0.729-0.509c0.02-0.067,0.029-0.137,0.029-0.206V11.389L71.418,11.389z"/>
	<path fill="#7E22CE" d="M73.317,7.796h0.944v5.406h-0.944V7.796z"/>
	<path fill="#7E22CE" d="M78.593,12.091c0,0.439,0,0.808,0.03,1.111h-0.821l-0.047-0.562l0,0c-0.255,0.413-0.708,0.659-1.191,0.646
		c-0.676,0-1.291-0.404-1.291-1.612V9.479h0.935v2.016c0,0.619,0.199,1.015,0.695,1.015c0.305-0.007,0.577-0.188,0.701-0.465
		c0.036-0.093,0.055-0.191,0.055-0.291V9.496h0.936L78.593,12.091L78.593,12.091z"/>
	<path fill="#7E22CE" d="M83.024,7.796v4.361c0,0.382,0,0.794,0.032,1.045h-0.835l-0.039-0.588l0,0
		c-0.244,0.435-0.711,0.694-1.209,0.672c-0.879,0-1.585-0.755-1.585-1.897c0-1.238,0.771-1.976,1.661-1.976
		c0.406-0.029,0.803,0.155,1.045,0.487l0,0V7.796H83.024z M82.089,11.042c0.007-0.082,0.007-0.164,0-0.246
		c-0.076-0.386-0.415-0.664-0.81-0.663c-0.601,0-0.935,0.536-0.935,1.225c0,0.69,0.334,1.173,0.927,1.173
		c0.393,0,0.729-0.276,0.809-0.659c0.021-0.09,0.031-0.183,0.029-0.276L82.089,11.042z"/>
	<path fill="#7E22CE" d="M86.583,8.09v5.112h-0.938V8.09H86.583z"/>
	<path fill="#7E22CE" d="M87.672,10.598c0-0.438,0-0.782-0.031-1.102h0.822l0.044,0.554h0.044c0.242-0.406,0.682-0.65,1.154-0.642
		c0.649,0,1.317,0.439,1.317,1.59v2.195h-0.937v-2.085c0-0.532-0.198-0.936-0.706-0.936c-0.339,0.009-0.634,0.231-0.734,0.554
		c-0.026,0.098-0.039,0.201-0.034,0.303v2.195h-0.939V10.598z"/>
	<path fill="#7E22CE" d="M95.442,7.796v4.361c0,0.382,0,0.794,0.031,1.045h-0.84l-0.039-0.588l0,0
		c-0.244,0.436-0.713,0.696-1.212,0.672c-0.878,0-1.581-0.755-1.581-1.897c0-1.238,0.77-1.976,1.66-1.976
		C93.868,9.382,94.264,9.567,94.5,9.9l0,0V7.796H95.442z M94.506,11.042c0-0.083-0.008-0.166-0.027-0.246
		c-0.072-0.386-0.41-0.664-0.803-0.663c-0.602,0-0.936,0.536-0.936,1.225c0,0.69,0.334,1.173,0.926,1.173
		c0.393,0,0.729-0.276,0.81-0.659c0.021-0.09,0.032-0.183,0.03-0.276V11.042z"/>
	<path fill="#7E22CE" d="M99.767,12.091c0,0.439,0,0.808,0.032,1.111h-0.821L98.93,12.64l0,0c-0.254,0.413-0.708,0.659-1.191,0.646
		c-0.677,0-1.291-0.404-1.291-1.612V9.479h0.938v2.016c0,0.619,0.195,1.015,0.693,1.015c0.303-0.009,0.576-0.189,0.703-0.465
		c0.031-0.094,0.049-0.191,0.051-0.291V9.496h0.936L99.767,12.091L99.767,12.091z"/>
	<path fill="#7E22CE" d="M100.735,12.341c0.293,0.164,0.619,0.255,0.953,0.269c0.413,0,0.592-0.167,0.592-0.414
		c0-0.246-0.152-0.382-0.609-0.54c-0.721-0.25-1.023-0.645-1.02-1.081c0-0.654,0.541-1.164,1.401-1.164
		c0.34-0.004,0.677,0.071,0.983,0.22l-0.186,0.654c-0.236-0.136-0.506-0.21-0.781-0.215c-0.338,0-0.518,0.162-0.518,0.391
		c0,0.228,0.176,0.347,0.645,0.514c0.674,0.246,0.983,0.588,0.993,1.137c0,0.667-0.526,1.155-1.511,1.155
		c-0.391,0.008-0.775-0.081-1.126-0.259L100.735,12.341z"/>
	<path fill="#7E22CE" d="M105.032,8.437v1.059h0.877v0.698h-0.877v1.638c0,0.439,0.121,0.685,0.479,0.685
		c0.125,0.002,0.249-0.013,0.369-0.047v0.715c-0.219,0.071-0.447,0.101-0.678,0.093c-0.299,0.013-0.592-0.097-0.808-0.304
		c-0.223-0.296-0.327-0.667-0.291-1.036v-1.757h-0.532V9.496h0.532V8.657L105.032,8.437z"/>
	<path fill="#7E22CE" d="M106.627,10.69c0-0.505,0-0.878-0.024-1.194h0.835l0.029,0.707h0.031c0.129-0.448,0.527-0.767,0.992-0.794
		c0.074-0.002,0.147,0.005,0.219,0.022v0.878c-0.09-0.019-0.184-0.029-0.275-0.031c-0.417-0.009-0.773,0.294-0.835,0.707
		c-0.021,0.095-0.028,0.193-0.028,0.29v1.919h-0.943V10.69L106.627,10.69z"/>
	<path fill="#7E22CE" d="M110.34,8.459c0.008,0.274-0.207,0.503-0.482,0.511c-0.016,0.001-0.031,0-0.049-0.001
		c-0.27,0.017-0.501-0.188-0.518-0.456c-0.002-0.015-0.002-0.03-0.002-0.045c0.027-0.29,0.283-0.503,0.572-0.477
		c0.254,0.023,0.453,0.223,0.479,0.477V8.459L110.34,8.459z M109.342,13.202V9.496h0.943v3.706H109.342z"/>
	<path fill="#7E22CE" d="M113.38,13.202l-0.063-0.413h-0.021c-0.27,0.325-0.674,0.508-1.096,0.497
		c-0.605,0.037-1.127-0.425-1.162-1.03c-0.004-0.024-0.004-0.049-0.004-0.072c0-0.94,0.83-1.41,2.197-1.401v-0.057
		c0-0.246-0.104-0.65-0.757-0.65c-0.353,0-0.694,0.096-0.996,0.277l-0.187-0.61c0.414-0.224,0.877-0.336,1.347-0.326
		c1.185,0,1.528,0.751,1.528,1.56v1.318c-0.006,0.293,0.012,0.587,0.051,0.877L113.38,13.202z M113.255,11.389
		c-0.661,0-1.294,0.132-1.294,0.694c-0.024,0.271,0.176,0.509,0.447,0.532c0.028,0.002,0.059,0.001,0.088-0.001
		c0.326,0.007,0.621-0.199,0.729-0.509c0.02-0.067,0.029-0.137,0.029-0.206L113.255,11.389L113.255,11.389z"/>
	<path fill="#7E22CE" d="M115.163,7.796h0.943v5.406h-0.943V7.796z"/>
	<path fill="#7E22CE" d="M8.078,24.38c-1.919-0.632-3.703-1.315-5.328-1.989C4.395,23.361,6.199,24.035,8.078,24.38z"/>
	<path fill="#7E22CE" d="M13.915,26.191c1.195,0.627,1.792,1.945,1.792,3.953c0,1.676-0.439,2.932-1.317,3.764
		c-0.879,0.83-2.599,1.246-5.161,1.24c-1.461-0.023-2.916-0.215-4.335-0.565c-1.143-0.286-2.263-0.657-3.351-1.11
		c-0.931-0.404-1.401-0.605-1.414-0.605l1.177,4.615c0.43,0.229,0.887,0.396,1.362,0.502c1.138,0.328,2.295,0.586,3.465,0.769
		c1.475,0.237,2.968,0.354,4.462,0.349c0.948,0,1.687,0,2.196-0.063c1.892-0.094,3.752-0.529,5.486-1.292
		c1.505-0.699,2.739-1.872,3.514-3.339c0.835-1.52,1.251-3.528,1.251-6.026c0-0.095,0-0.188,0-0.28
		c-3.448-0.642-6.636-1.356-9.597-2.144C13.607,26.037,13.766,26.1,13.915,26.191z"/>
	<path fill="#7E22CE" d="M24.865,28.703c0.029,3.486,0.777,6.021,2.244,7.602c1.466,1.582,3.774,2.487,6.921,2.719
		c0.439,0.041,1.033,0.063,1.806,0.063c1.62,0.041,3.236-0.143,4.805-0.545c1.257-0.365,1.885-0.658,1.885-0.878l0.923-3.757
		c-0.744,0.597-1.572,1.074-2.46,1.42c-1.256,0.568-2.994,0.852-5.213,0.849c-1.819-0.085-3.073-0.997-3.76-2.741
		c-0.544-1.295-0.925-2.658-1.134-4.049c-2.059-0.289-4.066-0.605-6.007-0.943C24.865,28.527,24.865,28.611,24.865,28.703z"/>
	<path fill="#7E22CE" d="M81.774,38.836h4.678v-8.18c-1.537,0.137-3.101,0.257-4.678,0.361V38.836z"/>
	<path fill="#7E22CE" d="M93.522,38.836h4.689v-9.51c-1.527,0.22-3.073,0.439-4.676,0.609L93.522,38.836z"/>
	<path fill="#7E22CE" d="M68.579,38.836h6.105v-7.467c-2.007,0.078-4.041,0.135-6.105,0.166V38.836z"/>
	<path fill="#7E22CE" d="M100.411,32.92c0.033,2.029,0.703,3.514,2.017,4.453c1.452,0.988,3.169,1.521,4.927,1.523
		c2.314,0,3.954-0.293,4.924-0.879c0.967-0.578,1.539-1.066,1.705-1.457v2.274h6.104v-14.28c-5.952,1.844-12.03,3.25-18.188,4.209
		C100.874,29.896,100.338,31.393,100.411,32.92z M106.739,30.881c1.205-0.619,2.517-1.006,3.865-1.133
		c0.77-0.057,1.521-0.251,2.223-0.57c0.381-0.174,0.705-0.449,0.936-0.801c0.137-0.271,0.212-0.438,0.22-0.438v4.927
		c0,1.198-0.991,2.065-2.979,2.604c-0.674,0.202-1.371,0.311-2.076,0.314c-2.21,0-3.383-0.73-3.514-2.194
		c-0.012-1.282,0.428-2.187,1.317-2.711L106.739,30.881L106.739,30.881z"/>
	<path fill="#7E22CE" d="M8.078,24.38c1.682,0.55,3.474,1.077,5.363,1.577c-1.728-0.703-3.521-1.23-5.354-1.577H8.078z"/>
	<path fill="#7E22CE" d="M20.792,22.781c-1.474-1.236-3.21-2.117-5.077-2.577c-1.942-0.496-3.87-1.037-5.785-1.625
		c-1.91-0.589-2.864-1.454-2.864-2.61c0.115-1.49,0.675-2.446,1.683-2.867c1.335-0.474,2.749-0.684,4.164-0.62
		c1.583-0.033,3.164,0.113,4.712,0.439c1.553,0.398,3.064,0.941,4.516,1.621l-1.23-4.866c-1.146-0.385-2.321-0.679-3.514-0.878
		c-2.404-0.405-4.841-0.583-7.278-0.532C8.408,8.318,6.714,8.637,5.1,9.21c-1.418,0.5-2.671,1.38-3.624,2.543
		C0.521,13,0.002,14.526,0,16.098c0,2.757,0.68,4.686,2.029,5.779c0.234,0.184,0.477,0.354,0.729,0.514
		c1.625,0.695,3.408,1.357,5.328,1.989l0,0c1.834,0.347,3.629,0.874,5.358,1.577c2.965,0.786,6.171,1.502,9.589,2.145
		C22.931,25.73,22.184,23.955,20.792,22.781z"/>
	<path fill="#7E22CE" d="M44.164,29.1c0.022-0.152,0.049-0.41,0.079-0.789c0.031-0.375,0.049-0.83,0.049-1.369
		c0-2.863-0.586-5.137-1.758-6.816c-1.37-2.029-3.984-3.043-7.844-3.043c-3.221,0.032-5.66,0.978-7.317,2.837
		c-1.658,1.858-2.493,4.699-2.508,8.517c1.94,0.336,3.952,0.654,6.008,0.944c0-0.093-0.031-0.194-0.039-0.28H44.164z M35.27,19.809
		c3.329,0,4.994,2.14,4.994,6.421h-9.417C30.847,22.043,32.321,19.902,35.27,19.809z"/>
	<path fill="#7E22CE" d="M96.456,18.728c-1.153-1.055-2.891-1.583-5.209-1.585c-1.066,0.012-2.121,0.23-3.105,0.646
		c-0.691,0.288-1.32,0.71-1.848,1.243c-0.439,0.439-0.633,0.69-0.643,0.712c-0.125-0.446-0.564-1-1.316-1.665
		c-0.754-0.664-2.045-0.996-3.875-0.996c-2.6,0-4.53,0.627-5.788,1.883V17.21h-6.104v14.345c2.046-0.035,4.083-0.091,6.104-0.166
		v-7.425c0.155-0.735,0.456-1.435,0.877-2.058c0.506-0.836,1.405-1.315,2.692-1.447c1.209,0,2.1,0.275,2.666,0.831
		c0.566,0.545,0.877,1.301,0.856,2.085v7.645c1.577-0.104,3.14-0.226,4.679-0.361V23.77c0.192-0.711,0.512-1.381,0.939-1.979
		c0.527-0.806,1.404-1.244,2.634-1.318c2.345,0,3.517,0.971,3.517,2.917v6.563c1.584-0.19,3.148-0.394,4.678-0.613v-6.485
		C98.258,21.287,97.618,19.778,96.456,18.728z"/>
	<path fill="#7E22CE" d="M117.84,18.847c-1.486-1.133-3.901-1.702-7.246-1.704c-1.428-0.014-2.852,0.16-4.232,0.519
		c-0.959,0.244-1.888,0.602-2.764,1.067c-0.664,0.382-0.992,0.61-0.992,0.685l-0.904,4.296c0.438-0.623,1.342-1.401,2.736-2.323
		c1.393-0.923,3.338-1.388,5.84-1.388c1.032-0.057,2.053,0.234,2.896,0.831c0.661,0.461,1.06,1.211,1.071,2.016
		c-0.033,0.84-0.469,1.614-1.166,2.08c-0.976,0.689-2.129,1.074-3.322,1.104c-3.118,0.234-5.46,0.896-7.026,1.986
		c-0.312,0.217-0.596,0.465-0.853,0.741c6.156-0.957,12.236-2.362,18.188-4.206v-1.24C120.104,21.545,119.271,19.878,117.84,18.847z
		"/>
	<path fill="#7E22CE" d="M48.429,35.027c0.637,1.674,1.896,3.039,3.514,3.809c1.619,0.777,3.815,1.166,6.589,1.164
		c1.646-0.02,3.287-0.182,4.906-0.48c1.282-0.267,1.924-0.438,1.924-0.535l0.403-3.764c0,0.064-0.33,0.25-0.975,0.559
		c-0.833,0.371-1.7,0.662-2.591,0.859c-1.252,0.277-2.534,0.407-3.817,0.389c-1.854-0.141-3.079-1.043-3.676-2.711
		c-0.272-0.791-0.472-1.605-0.598-2.434c-2.214-0.094-4.398-0.211-6.553-0.348C47.699,32.732,47.993,33.904,48.429,35.027z"/>
	<path fill="#7E22CE" d="M54.916,22.307c0.723-1.445,2.178-2.167,4.366-2.165c1.4,0,2.794,0.174,4.152,0.521
		c0.78,0.192,1.542,0.456,2.279,0.78l-0.681-3.281c-0.559-0.159-1.476-0.356-2.757-0.602c-1.433-0.265-2.884-0.412-4.34-0.439
		c-2.534,0-4.555,0.387-6.074,1.16c-1.484,0.743-2.658,1.988-3.312,3.515c-0.77,1.904-1.169,3.938-1.177,5.993
		c-0.007,1.245,0.066,2.49,0.22,3.727c2.152,0.141,4.336,0.256,6.553,0.346c-0.206-1.348-0.304-2.707-0.294-4.071
		C53.778,25.902,54.143,24.027,54.916,22.307z"/>
	<path fill="#7E22CE" d="M112.64,0.791c0,0,26.499,8.736,15.791,34.434c0,0,1.121-11.729-2.871-19.983
		C121.737,7.344,112.64,0.791,112.64,0.791z"/>
	<path fill="#7E22CE" d="M121.974,0c0,0,20.459,7.194,12.524,27.363c0,0,0.728-9.25-2.436-15.812C129.036,5.275,121.974,0,121.974,0
		z"/>
	<path fill="#7E22CE" d="M24.496,12.179c0.38,0.212,0.808,0.325,1.243,0.33c0.601,0,0.939-0.281,0.939-0.703
		c0-0.421-0.259-0.614-0.917-0.852c-0.843-0.303-1.384-0.755-1.384-1.494c0-0.838,0.698-1.48,1.814-1.48
		c0.426-0.011,0.849,0.078,1.234,0.259l-0.229,0.755c-0.313-0.161-0.662-0.246-1.016-0.246c-0.592,0-0.851,0.321-0.851,0.62
		c0,0.396,0.299,0.58,0.983,0.848c0.879,0.334,1.318,0.782,1.318,1.523c0,0.821-0.628,1.538-1.954,1.538
		c-0.48,0.003-0.954-0.106-1.384-0.321L24.496,12.179z"/>
	<path fill="#7E22CE" d="M29.143,11.604c0.021,0.557,0.491,0.991,1.049,0.971c0.032-0.001,0.064-0.005,0.098-0.009
		c0.349,0.009,0.698-0.049,1.028-0.167l0.135,0.646c-0.42,0.161-0.868,0.238-1.317,0.229c-0.967,0.088-1.821-0.625-1.908-1.592
		c-0.008-0.094-0.01-0.189-0.002-0.283c0-1.028,0.624-1.994,1.814-1.994s1.598,0.988,1.598,1.805c0,0.132-0.01,0.265-0.031,0.396
		h-2.464V11.604z M30.776,10.95c0.059-0.44-0.251-0.844-0.691-0.902c-0.027-0.004-0.055-0.006-0.082-0.007
		c-0.487,0.023-0.873,0.422-0.879,0.909H30.776z"/>
	<path fill="#7E22CE" d="M35.801,9.492c0,0.25-0.03,0.553-0.03,1.067v2.104c0,0.777-0.158,1.317-0.549,1.682
		c-0.408,0.315-0.917,0.471-1.432,0.439c-0.449,0.013-0.896-0.088-1.295-0.294l0.206-0.711c0.33,0.187,0.702,0.284,1.081,0.286
		c0.544,0.049,1.024-0.353,1.073-0.896c0.007-0.075,0.005-0.15-0.005-0.225v-0.322l0,0c-0.243,0.356-0.65,0.563-1.082,0.549
		c-0.921,0-1.581-0.764-1.581-1.814c0-1.221,0.794-1.958,1.687-1.958c0.439-0.025,0.854,0.199,1.075,0.58l0,0l0.041-0.497
		L35.801,9.492z M34.834,10.976c0.001-0.084-0.01-0.168-0.031-0.25c-0.084-0.354-0.401-0.604-0.765-0.602
		c-0.522,0-0.913,0.439-0.913,1.211c0,0.632,0.321,1.143,0.909,1.143c0.349,0,0.658-0.228,0.759-0.563
		c0.024-0.111,0.038-0.225,0.041-0.338V10.976z"/>
	<path fill="#7E22CE" d="M40.097,12.086c0,0.439,0,0.809,0.03,1.116h-0.82l-0.044-0.566l0,0c-0.255,0.427-0.725,0.676-1.222,0.65
		c-0.676,0-1.317-0.404-1.317-1.616V9.474h0.94v2.02c0,0.615,0.198,1.01,0.693,1.01c0.321,0.015,0.619-0.168,0.752-0.46
		c0.034-0.094,0.051-0.191,0.053-0.291V9.514h0.935V12.086z"/>
	<path fill="#7E22CE" d="M41.116,10.686c0-0.5,0-0.878-0.03-1.194h0.813l0.03,0.707h0.031c0.134-0.453,0.542-0.771,1.014-0.791
		c0.073-0.01,0.146-0.01,0.22,0v0.878c-0.089-0.019-0.181-0.029-0.272-0.031c-0.42-0.011-0.781,0.295-0.839,0.712
		c-0.021,0.093-0.03,0.189-0.032,0.285v1.924h-0.935V10.686z"/>
	<path fill="#7E22CE" d="M44.818,8.455c-0.026,0.29-0.283,0.504-0.573,0.478c-0.252-0.024-0.454-0.224-0.477-0.478
		c0.027-0.29,0.283-0.503,0.574-0.477C44.595,8.001,44.794,8.202,44.818,8.455z M43.822,13.202v-3.71h0.943v3.71H43.822z"/>
	<path fill="#7E22CE" d="M49.193,7.792v4.365c0,0.382,0,0.794,0.031,1.045h-0.839l-0.039-0.588l0,0
		c-0.244,0.436-0.714,0.696-1.213,0.672c-0.878,0-1.585-0.755-1.585-1.897c0-1.243,0.768-1.98,1.66-1.98
		c0.409-0.031,0.805,0.154,1.045,0.488l0,0V7.792H49.193z M48.252,11.038c0.001-0.083-0.006-0.165-0.021-0.246
		c-0.078-0.385-0.417-0.661-0.808-0.659c-0.602,0-0.936,0.531-0.936,1.225c0,0.695,0.333,1.173,0.926,1.173
		c0.394,0.001,0.732-0.277,0.808-0.663c0.024-0.089,0.034-0.181,0.031-0.272V11.038z"/>
	<path fill="#7E22CE" d="M52.285,13.202l-0.062-0.412l0,0c-0.271,0.325-0.675,0.508-1.098,0.497
		c-0.608,0.037-1.129-0.427-1.166-1.035c-0.001-0.023-0.002-0.047-0.002-0.072c0-0.935,0.83-1.409,2.196-1.401v-0.053
		c0-0.242-0.101-0.646-0.755-0.646c-0.351,0-0.695,0.095-0.998,0.272l-0.184-0.61c0.411-0.224,0.873-0.336,1.34-0.326
		c1.19,0,1.533,0.751,1.533,1.56v1.343c-0.003,0.294,0.015,0.587,0.052,0.879L52.285,13.202z M52.162,11.389
		c-0.664,0-1.318,0.127-1.318,0.694c-0.022,0.271,0.178,0.509,0.449,0.531c0.027,0.002,0.055,0.002,0.083,0
		c0.329,0.007,0.625-0.198,0.733-0.509c0.021-0.067,0.031-0.137,0.031-0.206L52.162,11.389z"/>
	<path fill="#7E22CE" d="M57.485,7.792v4.365c0,0.382,0,0.794,0.031,1.045h-0.839l-0.035-0.588l0,0
		c-0.244,0.436-0.713,0.696-1.212,0.672c-0.878,0-1.585-0.755-1.585-1.897c0-1.243,0.773-1.98,1.665-1.98
		c0.408-0.031,0.803,0.154,1.041,0.488l0,0V7.792H57.485z M56.55,11.038c0.006-0.082,0.006-0.164,0-0.246
		c-0.078-0.385-0.416-0.661-0.808-0.659c-0.602,0-0.94,0.531-0.94,1.225c0,0.695,0.338,1.173,0.932,1.173
		c0.392-0.001,0.73-0.278,0.808-0.663c0.022-0.089,0.032-0.181,0.03-0.272L56.55,11.038z"/>
	<path fill="#7E22CE" d="M60.653,9.492l0.667,1.99c0.076,0.228,0.154,0.508,0.208,0.725h0.022c0.061-0.216,0.127-0.492,0.198-0.734
		l0.579-1.98h1.006l-0.925,2.552c-0.51,1.388-0.852,2.002-1.296,2.384c-0.271,0.254-0.613,0.42-0.98,0.479l-0.215-0.791
		c0.198-0.052,0.383-0.14,0.549-0.259c0.215-0.152,0.39-0.354,0.509-0.589c0.034-0.049,0.056-0.106,0.061-0.166
		c-0.002-0.065-0.021-0.128-0.051-0.185l-1.357-3.404L60.653,9.492z"/>
	<path fill="#7E22CE" d="M65.466,12.179c0.379,0.212,0.808,0.326,1.242,0.33c0.602,0,0.936-0.281,0.936-0.703
		c0-0.421-0.259-0.614-0.913-0.852c-0.848-0.303-1.389-0.755-1.389-1.494c0-0.838,0.702-1.48,1.813-1.48
		c0.428-0.012,0.851,0.077,1.235,0.259l-0.229,0.755c-0.314-0.163-0.664-0.248-1.018-0.246c-0.593,0-0.857,0.321-0.857,0.62
		c0,0.396,0.299,0.58,0.984,0.848c0.878,0.334,1.318,0.782,1.318,1.524c0,0.821-0.625,1.538-1.951,1.538
		c-0.48,0.002-0.957-0.107-1.387-0.321L65.466,12.179z"/>
	<path fill="#7E22CE" d="M71.536,13.202l-0.058-0.412h-0.026c-0.271,0.326-0.676,0.509-1.099,0.497
		c-0.604,0.037-1.126-0.425-1.161-1.03c-0.004-0.027-0.004-0.052-0.004-0.078c0-0.935,0.83-1.409,2.197-1.401v-0.052
		c0-0.242-0.098-0.646-0.752-0.646c-0.352,0-0.695,0.095-1.001,0.272l-0.181-0.61c0.41-0.224,0.873-0.336,1.34-0.326
		c1.191,0,1.533,0.751,1.533,1.56v1.343c-0.004,0.294,0.012,0.587,0.051,0.879L71.536,13.202z M71.418,11.389
		c-0.66,0-1.314,0.127-1.314,0.694c-0.027,0.269,0.172,0.505,0.438,0.531c0.031,0.003,0.063,0.003,0.093,0
		c0.33,0.006,0.625-0.199,0.735-0.509c0.02-0.067,0.028-0.137,0.028-0.206L71.418,11.389z"/>
	<path fill="#7E22CE" d="M73.317,7.792h0.944v5.41h-0.944V7.792z"/>
	<path fill="#7E22CE" d="M78.598,12.086c0,0.439,0,0.809,0.031,1.116h-0.822l-0.049-0.566l0,0c-0.25,0.415-0.706,0.664-1.189,0.65
		c-0.677,0-1.296-0.404-1.296-1.616V9.474h0.935v2.02c0,0.615,0.203,1.01,0.695,1.01c0.305-0.005,0.579-0.185,0.707-0.46
		c0.031-0.094,0.051-0.191,0.053-0.291V9.514h0.937L78.598,12.086L78.598,12.086z"/>
	<path fill="#7E22CE" d="M83.03,7.792v4.365c0,0.382,0,0.794,0.031,1.045h-0.84l-0.035-0.588l0,0
		c-0.244,0.436-0.715,0.696-1.213,0.672c-0.879,0-1.585-0.755-1.585-1.897c0-1.243,0.772-1.98,1.665-1.98
		c0.408-0.031,0.802,0.154,1.041,0.488l0,0V7.792H83.03z M82.094,11.038c-0.001-0.082-0.008-0.165-0.021-0.246
		c-0.078-0.385-0.416-0.661-0.809-0.659c-0.602,0-0.939,0.531-0.939,1.225c0,0.695,0.338,1.173,0.931,1.173
		c0.393-0.001,0.731-0.278,0.808-0.663c0.021-0.089,0.034-0.181,0.032-0.272L82.094,11.038L82.094,11.038z"/>
	<path fill="#7E22CE" d="M86.586,8.064v5.138h-0.94V8.064H86.586z"/>
	<path fill="#7E22CE" d="M87.672,10.594c0-0.439,0-0.782-0.031-1.103h0.822l0.047,0.553l0,0c0.256-0.414,0.715-0.658,1.199-0.637
		c0.646,0,1.316,0.439,1.316,1.59v2.195h-0.935v-2.084c0-0.536-0.198-0.94-0.711-0.94c-0.339,0.009-0.634,0.234-0.729,0.558
		c-0.029,0.099-0.043,0.203-0.039,0.307v2.196h-0.939V10.594z"/>
	<path fill="#7E22CE" d="M95.446,7.792v4.365c0,0.382,0,0.794,0.031,1.045h-0.839l-0.039-0.588l0,0
		c-0.245,0.438-0.716,0.698-1.217,0.672c-0.878,0-1.586-0.755-1.586-1.897c0-1.243,0.769-1.98,1.659-1.98
		c0.41-0.031,0.807,0.154,1.045,0.488l0,0V7.792H95.446z M94.506,11.038c0.002-0.083-0.006-0.165-0.021-0.246
		c-0.078-0.385-0.416-0.661-0.809-0.659c-0.602,0-0.936,0.531-0.936,1.225c0,0.695,0.334,1.173,0.926,1.173
		c0.395,0.001,0.734-0.277,0.81-0.663c0.022-0.089,0.034-0.181,0.03-0.272V11.038z"/>
	<path fill="#7E22CE" d="M99.772,12.086c0,0.439,0,0.809,0.032,1.116h-0.826l-0.044-0.566l0,0c-0.246,0.418-0.702,0.669-1.186,0.65
		c-0.682,0-1.318-0.404-1.318-1.616V9.474h0.936v2.02c0,0.615,0.197,1.01,0.694,1.01c0.312,0.003,0.593-0.178,0.722-0.46
		c0.033-0.094,0.051-0.191,0.051-0.291V9.514h0.939V12.086L99.772,12.086z"/>
	<path fill="#7E22CE" d="M100.739,12.341c0.291,0.164,0.615,0.255,0.949,0.269c0.413,0,0.598-0.172,0.598-0.414
		c0-0.241-0.154-0.382-0.61-0.54c-0.726-0.255-1.028-0.65-1.022-1.084c0-0.654,0.545-1.164,1.405-1.164
		c0.34-0.004,0.677,0.071,0.983,0.22l-0.186,0.659c-0.24-0.136-0.511-0.21-0.785-0.215c-0.336,0-0.519,0.162-0.519,0.391
		c0,0.228,0.176,0.352,0.649,0.518c0.668,0.242,0.979,0.588,0.987,1.138c0,0.667-0.522,1.155-1.506,1.155
		c-0.394,0.008-0.78-0.081-1.131-0.259L100.739,12.341z"/>
	<path fill="#7E22CE" d="M105.034,8.433v1.059h0.879v0.698h-0.879v1.638c0,0.439,0.119,0.689,0.48,0.689
		c0.122,0.002,0.244-0.013,0.363-0.047v0.715c-0.221,0.068-0.451,0.1-0.682,0.093c-0.3,0.013-0.591-0.097-0.808-0.304
		c-0.224-0.298-0.323-0.667-0.286-1.036v-1.757h-0.535V9.492h0.535v-0.84L105.034,8.433z"/>
	<path fill="#7E22CE" d="M106.632,10.686c0-0.5,0-0.878-0.029-1.194h0.835v0.707h0.029c0.137-0.456,0.549-0.775,1.023-0.791
		c0.072-0.01,0.146-0.01,0.219,0v0.878c-0.088-0.019-0.18-0.029-0.271-0.031c-0.42-0.009-0.778,0.297-0.84,0.712
		c-0.019,0.094-0.026,0.189-0.028,0.285v1.924h-0.938V10.686z"/>
	<path fill="#7E22CE" d="M110.34,8.455c-0.026,0.29-0.283,0.504-0.573,0.478c-0.254-0.023-0.454-0.224-0.478-0.478
		c-0.004-0.279,0.219-0.509,0.496-0.514c0.011,0,0.021,0,0.031,0c0.273-0.015,0.508,0.195,0.522,0.469
		C110.34,8.425,110.34,8.44,110.34,8.455z M109.342,13.202v-3.71h0.943v3.71H109.342z"/>
	<path fill="#7E22CE" d="M113.38,13.202l-0.063-0.413h-0.021c-0.27,0.325-0.672,0.508-1.092,0.497
		c-0.607,0.037-1.131-0.427-1.166-1.035c-0.004-0.023-0.004-0.047-0.004-0.072c0-0.935,0.83-1.409,2.197-1.401v-0.052
		c0-0.242-0.098-0.646-0.752-0.646c-0.352,0-0.697,0.095-1.001,0.272l-0.181-0.61c0.41-0.224,0.871-0.336,1.341-0.326
		c1.188,0,1.53,0.751,1.53,1.56v1.343c-0.002,0.294,0.015,0.587,0.054,0.879L113.38,13.202z M113.26,11.389
		c-0.664,0-1.296,0.127-1.296,0.694c-0.022,0.271,0.178,0.509,0.448,0.531c0.029,0.002,0.057,0.002,0.084,0
		c0.328,0.007,0.625-0.198,0.733-0.509c0.021-0.067,0.029-0.137,0.029-0.206L113.26,11.389L113.26,11.389z"/>
	<path fill="#7E22CE" d="M115.163,7.792h0.943v5.41h-0.943V7.792z"/>
	<path fill="#7E22CE" d="M8.078,24.38c-1.919-0.632-3.703-1.315-5.328-1.989C4.395,23.361,6.199,24.035,8.078,24.38z"/>
	<path fill="#7E22CE" d="M13.915,26.191c1.195,0.627,1.792,1.945,1.792,3.953c0,1.676-0.439,2.932-1.317,3.764
		c-0.879,0.83-2.599,1.246-5.161,1.24c-1.461-0.023-2.916-0.215-4.335-0.565c-1.143-0.286-2.263-0.657-3.351-1.11
		c-0.931-0.404-1.401-0.605-1.414-0.605l1.177,4.615c0.43,0.229,0.887,0.396,1.362,0.502c1.138,0.328,2.295,0.586,3.465,0.769
		c1.475,0.237,2.968,0.354,4.462,0.349c0.948,0,1.687,0,2.196-0.063c1.892-0.094,3.752-0.529,5.486-1.292
		c1.505-0.699,2.739-1.872,3.514-3.339c0.835-1.52,1.251-3.528,1.251-6.026c0-0.095,0-0.188,0-0.28
		c-3.448-0.642-6.636-1.356-9.597-2.144C13.607,26.037,13.766,26.1,13.915,26.191z"/>
	<path fill="#7E22CE" d="M24.865,28.703c0.029,3.486,0.777,6.021,2.244,7.602c1.466,1.582,3.774,2.487,6.921,2.719
		c0.439,0.041,1.033,0.063,1.806,0.063c1.62,0.041,3.236-0.143,4.805-0.545c1.257-0.365,1.885-0.658,1.885-0.878l0.923-3.757
		c-0.744,0.597-1.572,1.074-2.46,1.42c-1.256,0.568-2.994,0.852-5.213,0.849c-1.819-0.085-3.073-0.997-3.76-2.741
		c-0.544-1.295-0.925-2.658-1.134-4.049c-2.059-0.289-4.066-0.605-6.007-0.943C24.865,28.527,24.865,28.611,24.865,28.703z"/>
	<path fill="#7E22CE" d="M81.774,38.836h4.678v-8.18c-1.537,0.137-3.101,0.257-4.678,0.361V38.836z"/>
	<path fill="#7E22CE" d="M93.522,38.836h4.689v-9.51c-1.527,0.22-3.073,0.439-4.676,0.609L93.522,38.836z"/>
	<path fill="#7E22CE" d="M68.579,38.836h6.105v-7.467c-2.007,0.078-4.041,0.135-6.105,0.166V38.836z"/>
	<path fill="#7E22CE" d="M44.164,29.1c0.022-0.152,0.049-0.41,0.079-0.789c0.031-0.375,0.049-0.83,0.049-1.369
		c0-2.863-0.586-5.137-1.758-6.816c-1.37-2.029-3.984-3.043-7.844-3.043c-3.221,0.032-5.66,0.978-7.317,2.837
		c-1.658,1.858-2.493,4.699-2.508,8.517c1.94,0.336,3.952,0.654,6.008,0.944c0-0.093-0.031-0.194-0.039-0.28H44.164z M35.27,19.809
		c3.329,0,4.994,2.14,4.994,6.421h-9.417C30.847,22.043,32.321,19.902,35.27,19.809z"/>
	<path fill="#7E22CE" d="M96.456,18.728c-1.153-1.055-2.891-1.583-5.209-1.585c-1.066,0.012-2.121,0.23-3.105,0.646
		c-0.691,0.288-1.32,0.71-1.848,1.243c-0.439,0.439-0.633,0.69-0.643,0.712c-0.125-0.446-0.564-1-1.316-1.665
		c-0.754-0.664-2.045-0.996-3.875-0.996c-2.6,0-4.53,0.627-5.788,1.883V17.21h-6.104v14.345c2.046-0.035,4.083-0.091,6.104-0.166
		v-7.425c0.155-0.735,0.456-1.435,0.877-2.058c0.506-0.836,1.405-1.315,2.692-1.447c1.209,0,2.1,0.275,2.666,0.831
		c0.566,0.545,0.877,1.301,0.856,2.085v7.645c1.577-0.104,3.14-0.226,4.679-0.361V23.77c0.192-0.711,0.512-1.381,0.939-1.979
		c0.527-0.806,1.404-1.244,2.634-1.318c2.345,0,3.517,0.971,3.517,2.917v6.563c1.584-0.19,3.148-0.394,4.678-0.613v-6.485
		C98.258,21.287,97.618,19.778,96.456,18.728z"/>
	<path fill="#7E22CE" d="M117.84,18.847c-1.486-1.133-3.901-1.702-7.246-1.704c-1.428-0.014-2.852,0.16-4.232,0.519
		c-0.959,0.244-1.888,0.602-2.764,1.067c-0.664,0.382-0.992,0.61-0.992,0.685l-0.904,4.296c0.438-0.623,1.342-1.401,2.736-2.323
		c1.393-0.923,3.338-1.388,5.84-1.388c1.032-0.057,2.053,0.234,2.896,0.831c0.661,0.461,1.06,1.211,1.071,2.016
		c-0.033,0.84-0.469,1.614-1.166,2.08c-0.976,0.689-2.129,1.074-3.322,1.104c-3.118,0.234-5.46,0.896-7.026,1.986
		c-0.312,0.217-0.596,0.465-0.853,0.741c6.156-0.957,12.236-2.362,18.188-4.206v-1.24C120.104,21.545,119.271,19.878,117.84,18.847z
		"/>
	<path fill="#7E22CE" d="M48.429,35.027c0.637,1.674,1.896,3.039,3.514,3.809c1.619,0.777,3.815,1.166,6.589,1.164
		c1.646-0.02,3.287-0.182,4.906-0.48c1.282-0.267,1.924-0.438,1.924-0.535l0.403-3.764c0,0.064-0.33,0.25-0.975,0.559
		c-0.833,0.371-1.7,0.662-2.591,0.859c-1.252,0.277-2.534,0.407-3.817,0.389c-1.854-0.141-3.079-1.043-3.676-2.711
		c-0.272-0.791-0.472-1.605-0.598-2.434c-2.214-0.094-4.398-0.211-6.553-0.348C47.699,32.732,47.993,33.904,48.429,35.027z"/>
	<path fill="#7E22CE" d="M54.916,22.307c0.723-1.445,2.178-2.167,4.366-2.165c1.4,0,2.794,0.174,4.152,0.521
		c0.78,0.192,1.542,0.456,2.279,0.78l-0.681-3.281c-0.559-0.159-1.476-0.356-2.757-0.602c-1.433-0.265-2.884-0.412-4.34-0.439
		c-2.534,0-4.555,0.387-6.074,1.16c-1.484,0.743-2.658,1.988-3.312,3.515c-0.77,1.904-1.169,3.938-1.177,5.993
		c-0.007,1.245,0.066,2.49,0.22,3.727c2.152,0.141,4.336,0.256,6.553,0.346c-0.206-1.348-0.304-2.707-0.294-4.071
		C53.778,25.902,54.143,24.027,54.916,22.307z"/>
	<path fill="#7E22CE" d="M112.64,0.791c0,0,26.499,8.736,15.791,34.434c0,0,1.121-11.729-2.871-19.983
		C121.737,7.344,112.64,0.791,112.64,0.791z"/>
	<path fill="#7E22CE" d="M121.974,0c0,0,20.459,7.194,12.524,27.363c0,0,0.728-9.25-2.436-15.812C129.036,5.275,121.974,0,121.974,0
		z"/>
</g>
</svg>
