<?xml version="1.0" encoding="utf-8"?>
<!-- Generator: Adobe Illustrator 16.0.0, SVG Export Plug-In . SVG Version: 6.00 Build 0)  -->
<!DOCTYPE svg PUBLIC "-//W3C//DTD SVG 1.1//EN" "http://www.w3.org/Graphics/SVG/1.1/DTD/svg11.dtd">
<svg version="1.1" id="logo-9" xmlns="http://www.w3.org/2000/svg" xmlns:xlink="http://www.w3.org/1999/xlink" x="0px" y="0px"
	 width="163.592px" height="48px" viewBox="27.266 8 163.592 48" enable-background="new 27.266 8 163.592 48" xml:space="preserve"
	>
<g>
	<path fill="#7E22CE" d="M56.661,22.621c0.458,0.25,0.971,0.384,1.492,0.39c0.722,0,1.122-0.337,1.122-0.838
		c0-0.5-0.311-0.742-1.095-1.022c-1.013-0.369-1.661-0.907-1.661-1.792c0-1.007,0.838-1.771,2.171-1.771
		c0.511-0.015,1.018,0.089,1.481,0.306l-0.273,0.907c-0.375-0.193-0.792-0.292-1.213-0.29c-0.716,0-1.054,0.379-1.054,0.737
		c0,0.475,0.359,0.696,1.18,1.012c1.054,0.406,1.581,0.943,1.581,1.83c0,0.984-0.749,1.844-2.34,1.844
		c-0.578,0.004-1.15-0.127-1.666-0.387L56.661,22.621z"/>
	<path fill="#7E22CE" d="M62.237,21.924c0.026,0.801,0.658,1.149,1.37,1.149c0.42,0.011,0.838-0.057,1.234-0.2l0.164,0.773
		c-0.495,0.191-1.021,0.284-1.55,0.275c-1.159,0.107-2.187-0.746-2.294-1.904c-0.011-0.114-0.012-0.228-0.004-0.341
		c0-1.234,0.754-2.393,2.177-2.393c1.423,0,1.918,1.186,1.918,2.166c0.003,0.158-0.01,0.318-0.037,0.475L62.237,21.924
		L62.237,21.924z M64.191,21.139c0.073-0.525-0.293-1.009-0.817-1.082c-0.035-0.005-0.069-0.008-0.104-0.009
		c-0.585,0.026-1.048,0.505-1.054,1.091H64.191z"/>
	<path fill="#7E22CE" d="M70.222,19.395c0,0.3-0.037,0.665-0.037,1.276v2.524c0,0.933-0.19,1.582-0.655,2.019
		c-0.49,0.376-1.1,0.564-1.718,0.527c-0.539,0.017-1.076-0.104-1.554-0.353l0.248-0.854c0.396,0.224,0.842,0.342,1.297,0.343
		c0.653,0.059,1.229-0.423,1.288-1.076c0.008-0.089,0.005-0.18-0.006-0.269v-0.386l0,0c-0.291,0.429-0.781,0.678-1.297,0.66
		c-1.106,0-1.892-0.917-1.892-2.177c0-1.459,0.948-2.344,2.018-2.344c0.526-0.031,1.024,0.235,1.291,0.69l0,0l0.022-0.58H70.222z
		 M69.062,21.176c0.001-0.101-0.01-0.202-0.037-0.3c-0.096-0.425-0.476-0.726-0.913-0.722c-0.631,0-1.096,0.527-1.096,1.449
		c0,0.759,0.385,1.371,1.085,1.371c0.419,0,0.79-0.273,0.912-0.674c0.031-0.131,0.047-0.266,0.047-0.401V21.176z"/>
	<path fill="#7E22CE" d="M75.377,22.51c0,0.526,0,0.97,0.037,1.333h-0.985l-0.053-0.675l0,0c-0.296,0.5-0.843,0.798-1.423,0.775
		c-0.812,0-1.582-0.485-1.582-1.935v-2.635h1.124v2.419c0,0.744,0.236,1.217,0.833,1.217c0.374,0,0.71-0.218,0.864-0.558
		c0.042-0.111,0.063-0.229,0.063-0.348v-2.709h1.124L75.377,22.51L75.377,22.51z"/>
	<path fill="#7E22CE" d="M76.604,20.828c0-0.606,0-1.054-0.037-1.434h0.98l0.037,0.849h0.037c0.158-0.544,0.647-0.926,1.213-0.948
		c0.09-0.002,0.18,0.006,0.269,0.026v1.055c-0.109-0.021-0.22-0.034-0.332-0.037c-0.501-0.011-0.933,0.353-1.007,0.849
		c-0.021,0.114-0.034,0.23-0.037,0.347v2.303h-1.122L76.604,20.828L76.604,20.828z"/>
	<path fill="#7E22CE" d="M81.047,18.151c0.01,0.328-0.249,0.604-0.577,0.613c-0.022,0-0.043,0-0.065-0.002
		c-0.326,0.026-0.61-0.215-0.636-0.541c-0.001-0.023-0.002-0.047-0.001-0.07c0-0.349,0.285-0.632,0.635-0.631
		c0.347,0.001,0.63,0.283,0.63,0.631H81.047z M79.852,23.843v-4.449h1.132v4.449H79.852z"/>
	<path fill="#7E22CE" d="M86.292,17.355v5.234c0,0.458,0,0.953,0.038,1.254h-1.007l-0.047-0.706l0,0
		c-0.294,0.522-0.857,0.834-1.455,0.806c-1.054,0-1.897-0.907-1.897-2.277c0-1.486,0.922-2.372,1.992-2.372
		c0.49-0.037,0.963,0.185,1.249,0.585l0,0v-2.524L86.292,17.355L86.292,17.355z M85.169,21.25c0-0.1-0.011-0.199-0.032-0.296
		c-0.088-0.462-0.494-0.797-0.964-0.795c-0.722,0-1.128,0.643-1.128,1.47c0,0.828,0.406,1.407,1.118,1.407
		c0.469,0,0.875-0.33,0.97-0.79c0.026-0.11,0.039-0.221,0.037-0.333V21.25z"/>
	<path fill="#7E22CE" d="M90.002,23.843l-0.074-0.495h-0.026c-0.325,0.39-0.81,0.609-1.318,0.595
		c-0.727,0.044-1.352-0.51-1.395-1.236c-0.002-0.029-0.003-0.058-0.002-0.086c0-1.128,0.996-1.692,2.635-1.682v-0.067
		c0-0.295-0.116-0.781-0.907-0.781c-0.421,0.001-0.835,0.115-1.197,0.332l-0.216-0.732c0.493-0.27,1.047-0.404,1.608-0.391
		c1.423,0,1.835,0.902,1.835,1.872v1.581c-0.004,0.353,0.017,0.704,0.063,1.054L90.002,23.843z M89.855,21.667
		c-0.796,0-1.549,0.158-1.549,0.833c-0.031,0.323,0.205,0.607,0.527,0.638c0.037,0.003,0.074,0.003,0.11,0
		c0.393,0.007,0.747-0.24,0.875-0.612c0.027-0.079,0.04-0.164,0.037-0.248V21.667z"/>
	<path fill="#7E22CE" d="M96.244,17.355v5.234c0,0.458,0,0.953,0.037,1.254h-1.001l-0.047-0.706l0,0
		c-0.292,0.521-0.853,0.833-1.45,0.806c-1.054,0-1.903-0.907-1.903-2.277c0-1.486,0.923-2.372,1.992-2.372
		c0.491-0.035,0.966,0.186,1.255,0.585l0,0v-2.524L96.244,17.355L96.244,17.355z M95.12,21.25c0.008-0.098,0.008-0.198,0-0.296
		c-0.091-0.463-0.498-0.797-0.97-0.795c-0.722,0-1.123,0.643-1.123,1.47c0,0.828,0.401,1.407,1.112,1.407
		c0.469,0,0.875-0.33,0.97-0.79c0.026-0.11,0.039-0.221,0.037-0.333L95.12,21.25z"/>
	<path fill="#7E22CE" d="M100.049,19.395l0.8,2.383c0.097,0.272,0.184,0.609,0.249,0.869h0.026c0.074-0.258,0.158-0.584,0.237-0.88
		l0.695-2.372h1.207l-1.11,3.057c-0.618,1.666-1.028,2.403-1.556,2.861c-0.329,0.303-0.738,0.503-1.18,0.575l-0.253-0.949
		c0.237-0.063,0.459-0.169,0.659-0.311c0.256-0.185,0.466-0.426,0.61-0.707c0.042-0.061,0.064-0.128,0.074-0.2
		c-0.003-0.078-0.026-0.151-0.068-0.216l-1.623-4.085L100.049,19.395z"/>
	<path fill="#7E22CE" d="M105.825,22.621c0.455,0.25,0.967,0.385,1.486,0.39c0.723,0,1.128-0.337,1.128-0.838
		c0-0.5-0.311-0.742-1.096-1.022c-1.017-0.369-1.667-0.907-1.667-1.792c0-1.007,0.844-1.771,2.177-1.771
		c0.512-0.015,1.019,0.091,1.483,0.306l-0.275,0.907c-0.379-0.193-0.8-0.293-1.228-0.29c-0.711,0-1.022,0.379-1.022,0.737
		c0,0.475,0.357,0.696,1.181,1.012c1.054,0.406,1.581,0.943,1.581,1.83c0,0.984-0.75,1.844-2.334,1.844
		c-0.578,0.007-1.149-0.125-1.667-0.386L105.825,22.621z"/>
	<path fill="#7E22CE" d="M113.108,23.843l-0.073-0.495h-0.026c-0.325,0.39-0.812,0.609-1.318,0.595
		c-0.727,0.044-1.351-0.51-1.395-1.236c-0.001-0.029-0.003-0.058-0.003-0.086c0-1.128,0.996-1.692,2.637-1.682v-0.067
		c0-0.295-0.12-0.781-0.908-0.781c-0.42,0-0.835,0.115-1.195,0.332l-0.217-0.732c0.492-0.27,1.048-0.404,1.608-0.391
		c1.424,0,1.834,0.902,1.834,1.872v1.581c-0.006,0.353,0.015,0.704,0.064,1.054L113.108,23.843z M112.971,21.667
		c-0.796,0-1.554,0.158-1.554,0.833c-0.028,0.326,0.212,0.61,0.537,0.639c0.035,0.003,0.07,0.002,0.105,0
		c0.393,0.007,0.747-0.24,0.876-0.612c0.023-0.08,0.035-0.164,0.035-0.248V21.667L112.971,21.667z"/>
	<path fill="#7E22CE" d="M115.247,17.355h1.134v6.488h-1.134V17.355z"/>
	<path fill="#7E22CE" d="M121.578,22.51c0,0.526,0,0.97,0.038,1.333h-0.987l-0.056-0.675l0,0c-0.304,0.497-0.849,0.792-1.429,0.775
		c-0.812,0-1.55-0.485-1.55-1.935v-2.635h1.122v2.419c0,0.744,0.237,1.217,0.834,1.217c0.364-0.007,0.692-0.226,0.842-0.558
		c0.043-0.111,0.064-0.229,0.064-0.348v-2.709h1.122L121.578,22.51L121.578,22.51z"/>
	<path fill="#7E22CE" d="M126.896,17.355v5.234c0,0.458,0,0.953,0.038,1.254h-1.002l-0.047-0.706l0,0
		c-0.293,0.521-0.853,0.833-1.45,0.806c-1.055,0-1.902-0.907-1.902-2.277c0-1.486,0.922-2.372,1.993-2.372
		c0.488-0.035,0.964,0.186,1.254,0.585l0,0v-2.524L126.896,17.355L126.896,17.355z M125.773,21.25c0.009-0.098,0.009-0.198,0-0.296
		c-0.091-0.463-0.498-0.797-0.97-0.795c-0.721,0-1.122,0.643-1.122,1.47c0,0.828,0.401,1.407,1.112,1.407
		c0.47,0,0.874-0.33,0.97-0.79c0.026-0.11,0.039-0.221,0.036-0.333L125.773,21.25z"/>
	<path fill="#7E22CE" d="M131.166,17.708v6.135h-1.124v-6.135H131.166z"/>
	<path fill="#7E22CE" d="M132.474,20.718c0-0.526,0-0.938-0.038-1.323h0.985l0.053,0.665h0.053c0.292-0.488,0.818-0.781,1.388-0.771
		c0.779,0,1.579,0.527,1.579,1.908v2.634h-1.122v-2.502c0-0.638-0.236-1.124-0.847-1.124c-0.407,0.011-0.759,0.278-0.882,0.665
		c-0.032,0.118-0.047,0.241-0.041,0.363v2.636h-1.128V20.718z"/>
	<path fill="#7E22CE" d="M141.796,17.355v5.234c0,0.458,0,0.953,0.039,1.254h-1.009l-0.047-0.706l0,0
		c-0.293,0.522-0.855,0.834-1.455,0.806c-1.053,0-1.896-0.907-1.896-2.277c0-1.486,0.923-2.372,1.992-2.372
		c0.489-0.037,0.964,0.185,1.248,0.585l0,0v-2.524L141.796,17.355L141.796,17.355z M140.674,21.25c0-0.1-0.011-0.199-0.032-0.296
		c-0.088-0.462-0.492-0.797-0.964-0.795c-0.723,0-1.122,0.643-1.122,1.47c0,0.828,0.399,1.407,1.11,1.407
		c0.472,0,0.876-0.33,0.971-0.79c0.025-0.11,0.038-0.221,0.037-0.333V21.25z"/>
	<path fill="#7E22CE" d="M146.987,22.51c0,0.526,0,0.97,0.039,1.333h-0.985l-0.058-0.675l0,0c-0.305,0.495-0.85,0.791-1.43,0.775
		c-0.812,0-1.55-0.485-1.55-1.935v-2.635h1.124v2.419c0,0.744,0.235,1.217,0.833,1.217c0.363-0.01,0.691-0.227,0.843-0.558
		c0.039-0.111,0.06-0.229,0.063-0.348v-2.709h1.122L146.987,22.51L146.987,22.51z"/>
	<path fill="#7E22CE" d="M148.148,22.81c0.352,0.196,0.741,0.306,1.143,0.322c0.497,0,0.711-0.199,0.711-0.496
		c0-0.295-0.184-0.459-0.732-0.649c-0.864-0.3-1.228-0.774-1.222-1.297c0-0.785,0.647-1.396,1.682-1.396
		c0.407-0.005,0.812,0.085,1.18,0.264l-0.223,0.785c-0.285-0.163-0.608-0.252-0.938-0.258c-0.405,0-0.621,0.195-0.621,0.469
		c0,0.274,0.211,0.417,0.773,0.617c0.808,0.295,1.181,0.706,1.192,1.365c0,0.8-0.633,1.386-1.813,1.386
		c-0.469,0.009-0.931-0.097-1.351-0.311L148.148,22.81z"/>
	<path fill="#7E22CE" d="M153.303,18.125v1.27h1.053v0.838h-1.053v1.966c0,0.527,0.147,0.822,0.574,0.822
		c0.151,0.003,0.298-0.016,0.444-0.057v0.859c-0.263,0.084-0.538,0.121-0.812,0.11c-0.36,0.016-0.712-0.116-0.97-0.365
		c-0.268-0.355-0.393-0.8-0.349-1.243v-2.108h-0.639v-0.822h0.639v-1.006L153.303,18.125z"/>
	<path fill="#7E22CE" d="M155.22,20.828c0-0.606,0-1.054-0.031-1.434h1.002l0.037,0.849h0.038c0.153-0.538,0.632-0.92,1.189-0.954
		c0.089-0.001,0.179,0.007,0.265,0.026v1.055c-0.109-0.023-0.22-0.036-0.331-0.037c-0.501-0.011-0.93,0.354-1.002,0.849
		c-0.023,0.114-0.036,0.231-0.036,0.347v2.303h-1.13L155.22,20.828L155.22,20.828z"/>
	<path fill="#7E22CE" d="M159.674,18.151c0.011,0.328-0.249,0.604-0.577,0.612c-0.019,0.001-0.038,0-0.059-0.001
		c-0.322,0.021-0.601-0.224-0.621-0.546c-0.001-0.018-0.001-0.035-0.001-0.054c0.032-0.347,0.34-0.604,0.687-0.571
		c0.304,0.028,0.545,0.268,0.573,0.571v-0.01H159.674z M158.478,23.843v-4.449h1.134v4.449H158.478z"/>
	<path fill="#7E22CE" d="M163.321,23.843l-0.075-0.495h-0.026c-0.323,0.39-0.808,0.609-1.316,0.595
		c-0.726,0.044-1.351-0.51-1.393-1.236c-0.003-0.029-0.003-0.058-0.003-0.086c0-1.128,0.995-1.692,2.635-1.682v-0.067
		c0-0.295-0.121-0.781-0.906-0.781c-0.423,0-0.835,0.115-1.197,0.332l-0.222-0.732c0.495-0.268,1.051-0.403,1.613-0.391
		c1.423,0,1.834,0.902,1.834,1.872v1.581c-0.006,0.353,0.016,0.704,0.062,1.054L163.321,23.843z M163.174,21.667
		c-0.796,0-1.554,0.158-1.554,0.833c-0.028,0.326,0.212,0.61,0.537,0.639c0.035,0.003,0.07,0.002,0.105,0
		c0.393,0.007,0.747-0.24,0.876-0.612c0.023-0.08,0.035-0.164,0.035-0.248V21.667L163.174,21.667z"/>
	<path fill="#7E22CE" d="M165.462,17.355h1.134v6.488h-1.134V17.355z"/>
	<path fill="#7E22CE" d="M36.959,37.256c-2.303-0.759-4.443-1.58-6.393-2.388C32.54,36.034,34.704,36.843,36.959,37.256z"/>
	<path fill="#7E22CE" d="M43.964,39.43c1.434,0.753,2.15,2.334,2.15,4.742c0,2.014-0.527,3.519-1.581,4.518
		c-1.054,0.996-3.118,1.494-6.193,1.49c-1.754-0.031-3.5-0.26-5.203-0.68c-1.371-0.345-2.715-0.791-4.021-1.334
		c-1.118-0.484-1.682-0.728-1.697-0.728l1.413,5.541c0.516,0.271,1.065,0.475,1.633,0.601c1.365,0.395,2.754,0.703,4.159,0.922
		c1.771,0.284,3.561,0.424,5.355,0.417c1.139,0,2.023,0,2.636-0.074c2.27-0.11,4.501-0.636,6.583-1.549
		c1.805-0.839,3.286-2.247,4.216-4.007c1.002-1.824,1.502-4.234,1.502-7.232c0-0.115,0-0.226,0-0.337
		c-4.138-0.771-7.964-1.629-11.516-2.571C43.595,39.244,43.785,39.318,43.964,39.43z"/>
	<path fill="#7E22CE" d="M57.104,42.443c0.035,4.185,0.932,7.226,2.693,9.123c1.76,1.896,4.529,2.984,8.307,3.262
		c0.527,0.049,1.239,0.075,2.167,0.075c1.943,0.048,3.883-0.172,5.766-0.654c1.508-0.438,2.262-0.79,2.262-1.054l1.107-4.507
		c-0.892,0.715-1.887,1.289-2.952,1.702c-1.507,0.682-3.593,1.021-6.256,1.019c-2.183-0.103-3.687-1.198-4.512-3.29
		c-0.653-1.557-1.11-3.19-1.36-4.86c-2.471-0.347-4.879-0.727-7.209-1.132C57.104,42.232,57.104,42.332,57.104,42.443z"/>
	<path fill="#7E22CE" d="M125.396,54.603h5.612v-9.814c-1.845,0.164-3.721,0.307-5.612,0.433V54.603z"/>
	<path fill="#7E22CE" d="M139.493,54.603h5.629V43.191c-1.834,0.264-3.688,0.527-5.611,0.732L139.493,54.603z"/>
	<path fill="#7E22CE" d="M109.561,54.603h7.327v-8.96c-2.408,0.095-4.849,0.162-7.327,0.2V54.603z"/>
	<path fill="#7E22CE" d="M147.758,47.503c0.041,2.436,0.844,4.217,2.421,5.345c1.742,1.187,3.802,1.825,5.912,1.828
		c2.777,0,4.745-0.352,5.908-1.054c1.16-0.695,1.846-1.28,2.045-1.749v2.73h7.328V37.467c-7.144,2.211-14.438,3.898-21.826,5.051
		C148.314,43.877,147.671,45.67,147.758,47.503z M155.352,45.058c1.447-0.744,3.021-1.207,4.64-1.36
		c0.922-0.068,1.826-0.301,2.667-0.686c0.457-0.207,0.847-0.539,1.122-0.961c0.164-0.325,0.254-0.524,0.264-0.524v5.913
		c0,1.438-1.189,2.479-3.574,3.126c-0.809,0.243-1.646,0.372-2.492,0.378c-2.651,0-4.058-0.877-4.216-2.634
		c-0.015-1.54,0.513-2.623,1.582-3.252H155.352z"/>
	<path fill="#7E22CE" d="M36.959,37.256c2.018,0.66,4.169,1.293,6.435,1.893c-2.073-0.844-4.225-1.477-6.424-1.893H36.959z"/>
	<path fill="#7E22CE" d="M52.218,35.337c-1.769-1.483-3.853-2.54-6.093-3.093c-2.33-0.594-4.643-1.244-6.942-1.95
		c-2.293-0.707-3.437-1.745-3.437-3.131c0.138-1.789,0.81-2.936,2.02-3.441c1.602-0.567,3.299-0.82,4.997-0.743
		c1.899-0.041,3.796,0.135,5.655,0.527c1.863,0.478,3.676,1.128,5.419,1.944l-1.477-5.839c-1.375-0.462-2.785-0.814-4.217-1.054
		c-2.884-0.485-5.808-0.699-8.733-0.638c-2.055,0.063-4.087,0.444-6.024,1.132c-1.702,0.601-3.206,1.656-4.349,3.052
		c-1.146,1.497-1.768,3.329-1.771,5.213c0,3.31,0.817,5.625,2.435,6.937c0.281,0.22,0.573,0.424,0.875,0.615
		c1.95,0.834,4.09,1.629,6.393,2.388l0,0c2.201,0.416,4.355,1.049,6.431,1.893c3.558,0.943,7.405,1.802,11.505,2.572
		C54.783,38.875,53.887,36.746,52.218,35.337z"/>
	<path fill="#7E22CE" d="M80.262,42.918c0.026-0.18,0.059-0.49,0.095-0.945c0.037-0.452,0.059-0.996,0.059-1.643
		c0-3.438-0.704-6.164-2.109-8.18c-1.644-2.436-4.781-3.653-9.414-3.653c-3.865,0.038-6.792,1.173-8.781,3.404
		c-1.989,2.231-2.991,5.639-3.009,10.22c2.329,0.404,4.743,0.785,7.209,1.133c0-0.11-0.037-0.233-0.047-0.337H80.262z M69.59,31.77
		c3.995,0,5.992,2.568,5.992,7.705h-11.3C64.282,34.451,66.05,31.882,69.59,31.77z"/>
	<path fill="#7E22CE" d="M143.015,30.473c-1.386-1.266-3.469-1.9-6.252-1.903c-1.28,0.014-2.546,0.277-3.727,0.775
		c-0.83,0.346-1.585,0.853-2.218,1.492c-0.527,0.527-0.759,0.828-0.771,0.854c-0.149-0.535-0.677-1.2-1.579-1.998
		c-0.905-0.797-2.454-1.195-4.649-1.195c-3.12,0-5.437,0.753-6.946,2.26V28.65h-7.327v17.213c2.458-0.041,4.901-0.108,7.327-0.199
		v-8.909c0.188-0.882,0.547-1.72,1.052-2.467c0.606-1.005,1.688-1.579,3.231-1.737c1.451,0,2.519,0.331,3.2,0.996
		c0.679,0.652,1.051,1.563,1.028,2.502v9.172c1.892-0.126,3.767-0.269,5.612-0.433v-8.265c0.232-0.854,0.614-1.658,1.128-2.377
		c0.634-0.966,1.688-1.493,3.162-1.581c2.813,0,4.217,1.167,4.217,3.501v7.874c1.903-0.228,3.779-0.471,5.615-0.733v-7.785
		C145.178,33.545,144.409,31.734,143.015,30.473z"/>
	<path fill="#7E22CE" d="M168.676,30.615c-1.784-1.359-4.683-2.042-8.695-2.045c-1.714-0.016-3.422,0.192-5.081,0.623
		c-1.151,0.293-2.266,0.722-3.314,1.28c-0.798,0.458-1.192,0.732-1.192,0.822l-1.084,5.154c0.527-0.747,1.61-1.682,3.284-2.789
		c1.67-1.105,4.005-1.664,7.007-1.664c1.239-0.069,2.463,0.281,3.475,0.997c0.794,0.553,1.271,1.454,1.286,2.419
		c-0.041,1.01-0.563,1.938-1.4,2.497c-1.169,0.827-2.555,1.288-3.986,1.325c-3.741,0.281-6.552,1.075-8.432,2.381
		c-0.372,0.262-0.715,0.561-1.021,0.892c7.389-1.149,14.682-2.837,21.825-5.048v-1.488C171.39,33.855,170.393,31.853,168.676,30.615
		z"/>
	<path fill="#7E22CE" d="M85.38,50.032c0.765,2.01,2.274,3.647,4.216,4.57c1.943,0.935,4.578,1.4,7.906,1.397
		c1.975-0.023,3.945-0.217,5.888-0.576c1.539-0.32,2.309-0.525,2.309-0.643l0.484-4.518c0,0.079-0.395,0.302-1.17,0.672
		c-0.999,0.446-2.041,0.795-3.109,1.031c-1.503,0.333-3.041,0.488-4.581,0.466c-2.224-0.168-3.693-1.251-4.411-3.252
		c-0.327-0.95-0.566-1.928-0.717-2.922c-2.657-0.111-5.278-0.252-7.864-0.416C84.503,47.278,84.857,48.685,85.38,50.032z"/>
	<path fill="#7E22CE" d="M93.165,34.768c0.868-1.734,2.614-2.601,5.239-2.598c1.68,0,3.354,0.208,4.981,0.624
		c0.937,0.232,1.851,0.547,2.735,0.938l-0.817-3.937c-0.67-0.189-1.771-0.428-3.309-0.722c-1.72-0.317-3.461-0.494-5.209-0.527
		c-3.04,0-5.466,0.464-7.288,1.392c-1.781,0.892-3.189,2.386-3.974,4.217c-0.924,2.286-1.403,4.729-1.414,7.193
		c-0.008,1.494,0.08,2.988,0.264,4.471c2.582,0.17,5.204,0.308,7.864,0.416c-0.247-1.617-0.365-3.25-0.353-4.887
		C91.799,39.084,92.237,36.834,93.165,34.768z"/>
	<path fill="#7E22CE" d="M162.435,8.949c0,0,31.798,10.483,18.95,41.321c0,0,1.345-14.077-3.447-23.981
		C173.352,16.813,162.435,8.949,162.435,8.949z"/>
	<path fill="#7E22CE" d="M173.636,8c0,0,24.55,8.633,15.027,32.836c0,0,0.875-11.101-2.92-18.975
		C182.111,14.329,173.636,8,173.636,8z"/>
	<path fill="#7E22CE" d="M56.661,22.615c0.456,0.254,0.969,0.39,1.492,0.395c0.722,0,1.127-0.337,1.127-0.843
		c0-0.506-0.312-0.738-1.101-1.022c-1.013-0.364-1.661-0.907-1.661-1.792c0-1.006,0.838-1.776,2.177-1.776
		c0.511-0.014,1.018,0.094,1.481,0.311l-0.273,0.906c-0.376-0.194-0.794-0.295-1.219-0.295c-0.711,0-1.022,0.385-1.022,0.744
		c0,0.475,0.359,0.696,1.181,1.017c1.055,0.401,1.582,0.938,1.582,1.83c0,0.984-0.754,1.844-2.345,1.844
		c-0.576,0.005-1.145-0.127-1.66-0.385L56.661,22.615z"/>
	<path fill="#7E22CE" d="M62.237,21.924c0.025,0.668,0.589,1.189,1.259,1.165c0.038-0.001,0.078-0.005,0.117-0.011
		c0.419,0.011,0.838-0.059,1.234-0.199l0.163,0.774c-0.504,0.193-1.042,0.287-1.581,0.273c-1.16,0.106-2.186-0.75-2.29-1.909
		c-0.011-0.114-0.011-0.228-0.003-0.341c0-1.233,0.749-2.392,2.176-2.392c1.428,0,1.918,1.186,1.918,2.165
		c0,0.158-0.012,0.318-0.037,0.475H62.237z M64.197,21.139c0.07-0.528-0.301-1.012-0.829-1.083
		c-0.032-0.005-0.066-0.008-0.098-0.009c-0.584,0.028-1.047,0.507-1.055,1.091H64.197z"/>
	<path fill="#7E22CE" d="M70.227,19.39c0,0.3-0.037,0.664-0.037,1.28v2.524c0,0.933-0.189,1.582-0.659,2.019
		c-0.49,0.378-1.1,0.565-1.718,0.527c-0.539,0.017-1.076-0.104-1.554-0.353l0.248-0.854c0.396,0.224,0.842,0.342,1.297,0.343
		c0.653,0.059,1.229-0.423,1.288-1.076c0.008-0.089,0.005-0.18-0.006-0.269v-0.386l0,0c-0.292,0.428-0.781,0.676-1.297,0.66
		c-1.106,0-1.897-0.917-1.897-2.177c0-1.465,0.953-2.35,2.024-2.35c0.527-0.03,1.026,0.238,1.291,0.695l0,0l0.048-0.596
		L70.227,19.39z M69.068,21.171c0.001-0.101-0.011-0.202-0.037-0.3c-0.101-0.424-0.482-0.725-0.918-0.722
		c-0.627,0-1.096,0.527-1.096,1.454c0,0.759,0.385,1.371,1.091,1.371c0.419,0,0.79-0.273,0.911-0.674
		c0.029-0.134,0.046-0.269,0.048-0.406V21.171z"/>
	<path fill="#7E22CE" d="M75.381,22.504c0,0.527,0,0.97,0.037,1.339h-0.984l-0.053-0.68l0,0c-0.306,0.511-0.87,0.812-1.466,0.78
		c-0.812,0-1.581-0.484-1.581-1.939v-2.635h1.128v2.424c0,0.738,0.237,1.213,0.832,1.213c0.386,0.018,0.743-0.203,0.902-0.554
		c0.041-0.111,0.063-0.229,0.063-0.348v-2.688h1.123L75.381,22.504L75.381,22.504z"/>
	<path fill="#7E22CE" d="M76.604,20.823c0-0.601,0-1.054-0.037-1.433h0.976l0.037,0.848h0.037c0.161-0.544,0.651-0.925,1.218-0.949
		c0.087-0.012,0.175-0.012,0.263,0v1.055c-0.107-0.023-0.217-0.035-0.327-0.037c-0.504-0.014-0.938,0.354-1.007,0.854
		c-0.024,0.112-0.037,0.227-0.037,0.342v2.309h-1.122L76.604,20.823L76.604,20.823z"/>
	<path fill="#7E22CE" d="M81.047,18.145c-0.031,0.349-0.339,0.605-0.688,0.573c-0.303-0.028-0.544-0.269-0.572-0.573
		c0.032-0.347,0.34-0.604,0.688-0.571C80.779,17.602,81.02,17.842,81.047,18.145z M79.852,23.843V19.39h1.132v4.454H79.852z"/>
	<path fill="#7E22CE" d="M86.297,17.35v5.24c0,0.457,0,0.953,0.038,1.254h-1.007l-0.047-0.706l0,0
		c-0.293,0.522-0.856,0.835-1.455,0.806c-1.053,0-1.902-0.907-1.902-2.277c0-1.491,0.922-2.377,1.992-2.377
		c0.491-0.037,0.966,0.186,1.254,0.586l0,0V17.35L86.297,17.35L86.297,17.35z M85.169,21.245c0.002-0.1-0.007-0.198-0.026-0.295
		c-0.094-0.461-0.5-0.792-0.97-0.791c-0.722,0-1.123,0.637-1.123,1.47c0,0.833,0.4,1.407,1.112,1.407
		c0.472,0.001,0.879-0.333,0.97-0.796c0.028-0.107,0.041-0.216,0.037-0.327V21.245z"/>
	<path fill="#7E22CE" d="M90.008,23.843l-0.074-0.495l0,0c-0.325,0.39-0.81,0.609-1.317,0.595c-0.73,0.044-1.356-0.512-1.4-1.242
		c-0.001-0.028-0.003-0.058-0.002-0.085c0-1.123,0.996-1.692,2.635-1.681v-0.063c0-0.291-0.122-0.775-0.907-0.775
		c-0.42,0-0.833,0.113-1.197,0.327l-0.221-0.732c0.492-0.268,1.047-0.403,1.608-0.391c1.428,0,1.839,0.902,1.839,1.872v1.612
		c-0.003,0.353,0.018,0.705,0.063,1.055L90.008,23.843z M89.86,21.667c-0.796,0-1.581,0.153-1.581,0.833
		c-0.027,0.326,0.214,0.61,0.539,0.638c0.033,0.003,0.066,0.003,0.099,0c0.395,0.009,0.75-0.238,0.88-0.612
		c0.024-0.08,0.037-0.164,0.037-0.248L89.86,21.667z"/>
	<path fill="#7E22CE" d="M96.248,17.35v5.24c0,0.457,0,0.953,0.037,1.254h-1.006l-0.043-0.706l0,0
		c-0.293,0.522-0.855,0.835-1.454,0.806c-1.054,0-1.903-0.907-1.903-2.277c0-1.491,0.928-2.377,1.998-2.377
		c0.49-0.037,0.963,0.186,1.249,0.586l0,0V17.35L96.248,17.35L96.248,17.35z M95.125,21.245c0.008-0.099,0.008-0.197,0-0.295
		c-0.094-0.461-0.5-0.792-0.97-0.791c-0.722,0-1.128,0.637-1.128,1.47c0,0.833,0.406,1.407,1.118,1.407
		c0.47-0.001,0.876-0.333,0.97-0.796c0.026-0.107,0.038-0.216,0.037-0.327L95.125,21.245z"/>
	<path fill="#7E22CE" d="M100.049,19.39l0.8,2.388c0.09,0.273,0.184,0.61,0.249,0.87h0.026c0.074-0.259,0.152-0.59,0.237-0.881
		l0.695-2.376h1.207l-1.11,3.062c-0.612,1.666-1.022,2.403-1.556,2.861c-0.325,0.305-0.735,0.504-1.176,0.575l-0.258-0.949
		c0.237-0.063,0.459-0.169,0.659-0.311c0.258-0.183,0.467-0.425,0.61-0.707c0.042-0.06,0.067-0.128,0.074-0.2
		c-0.003-0.078-0.025-0.154-0.062-0.221l-1.629-4.084L100.049,19.39z"/>
	<path fill="#7E22CE" d="M105.825,22.615c0.455,0.255,0.97,0.391,1.492,0.395c0.721,0,1.122-0.337,1.122-0.843
		c0-0.506-0.311-0.738-1.096-1.022c-1.017-0.364-1.667-0.907-1.667-1.792c0-1.006,0.844-1.776,2.177-1.776
		c0.513-0.014,1.019,0.092,1.483,0.311l-0.275,0.906c-0.378-0.196-0.797-0.297-1.222-0.295c-0.712,0-1.028,0.385-1.028,0.744
		c0,0.475,0.357,0.696,1.181,1.017c1.054,0.401,1.581,0.938,1.581,1.83c0,0.984-0.75,1.844-2.34,1.844
		c-0.578,0.003-1.148-0.127-1.665-0.386L105.825,22.615z"/>
	<path fill="#7E22CE" d="M113.108,23.843l-0.068-0.495h-0.031c-0.325,0.39-0.812,0.609-1.318,0.595
		c-0.727,0.044-1.351-0.51-1.395-1.236c-0.003-0.031-0.003-0.062-0.003-0.091c0-1.123,0.996-1.692,2.637-1.681v-0.063
		c0-0.291-0.117-0.775-0.902-0.775c-0.422,0-0.835,0.113-1.201,0.327l-0.217-0.732c0.492-0.268,1.048-0.403,1.608-0.391
		c1.43,0,1.84,0.902,1.84,1.872v1.612c-0.006,0.353,0.016,0.705,0.062,1.055L113.108,23.843z M112.971,21.667
		c-0.796,0-1.58,0.153-1.58,0.833c-0.031,0.323,0.205,0.607,0.525,0.638c0.038,0.003,0.076,0.003,0.111,0
		c0.395,0.006,0.75-0.24,0.881-0.612c0.024-0.08,0.036-0.164,0.036-0.248L112.971,21.667z"/>
	<path fill="#7E22CE" d="M115.247,17.35h1.134v6.494h-1.134V17.35z"/>
	<path fill="#7E22CE" d="M121.584,22.504c0,0.527,0,0.97,0.038,1.339h-0.986l-0.059-0.68l0,0c-0.3,0.498-0.847,0.795-1.428,0.78
		c-0.812,0-1.555-0.484-1.555-1.939v-2.635h1.122v2.424c0,0.738,0.243,1.213,0.834,1.213c0.364-0.007,0.694-0.222,0.848-0.554
		c0.038-0.111,0.061-0.23,0.063-0.348v-2.688h1.123L121.584,22.504L121.584,22.504z"/>
	<path fill="#7E22CE" d="M126.901,17.35v5.24c0,0.457,0,0.953,0.038,1.254h-1.008l-0.042-0.706l0,0
		c-0.293,0.522-0.857,0.835-1.455,0.806c-1.054,0-1.901-0.907-1.901-2.277c0-1.491,0.926-2.377,1.998-2.377
		c0.489-0.037,0.961,0.186,1.248,0.586l0,0V17.35L126.901,17.35L126.901,17.35z M125.779,21.245
		c-0.001-0.099-0.011-0.198-0.026-0.295c-0.094-0.461-0.499-0.792-0.97-0.791c-0.722,0-1.128,0.637-1.128,1.47
		c0,0.833,0.406,1.407,1.116,1.407c0.472-0.001,0.878-0.333,0.97-0.796c0.025-0.107,0.04-0.216,0.038-0.327V21.245z"/>
	<path fill="#7E22CE" d="M131.17,17.676v6.167h-1.128v-6.167H131.17z"/>
	<path fill="#7E22CE" d="M132.474,20.713c0-0.527,0-0.938-0.038-1.323h0.985l0.058,0.664l0,0c0.306-0.496,0.857-0.789,1.439-0.764
		c0.775,0,1.58,0.527,1.58,1.908v2.634h-1.122v-2.502c0-0.643-0.236-1.128-0.854-1.128c-0.406,0.011-0.759,0.28-0.875,0.67
		c-0.036,0.119-0.053,0.243-0.048,0.368v2.637h-1.128v-3.163H132.474z"/>
	<path fill="#7E22CE" d="M141.803,17.35v5.24c0,0.457,0,0.953,0.036,1.254h-1.006l-0.048-0.706l0,0
		c-0.295,0.524-0.86,0.837-1.461,0.806c-1.053,0-1.902-0.907-1.902-2.277c0-1.491,0.923-2.377,1.992-2.377
		c0.492-0.037,0.967,0.186,1.254,0.586l0,0V17.35L141.803,17.35L141.803,17.35z M140.674,21.245c0.001-0.1-0.008-0.198-0.026-0.295
		c-0.094-0.461-0.498-0.792-0.97-0.791c-0.723,0-1.122,0.637-1.122,1.47c0,0.833,0.399,1.407,1.11,1.407
		c0.473,0.001,0.88-0.333,0.971-0.796c0.028-0.107,0.042-0.216,0.037-0.327V21.245z"/>
	<path fill="#7E22CE" d="M146.994,22.504c0,0.527,0,0.97,0.038,1.339h-0.991l-0.053-0.68l0,0c-0.295,0.502-0.843,0.802-1.423,0.78
		c-0.817,0-1.582-0.484-1.582-1.939v-2.635h1.122v2.424c0,0.738,0.237,1.213,0.834,1.213c0.372,0.003,0.71-0.214,0.864-0.554
		c0.041-0.111,0.063-0.229,0.063-0.348v-2.688h1.128V22.504L146.994,22.504z"/>
	<path fill="#7E22CE" d="M148.153,22.81c0.349,0.196,0.738,0.307,1.138,0.322c0.497,0,0.717-0.206,0.717-0.496
		c0-0.29-0.185-0.459-0.732-0.649c-0.87-0.306-1.233-0.78-1.228-1.301c0-0.785,0.653-1.397,1.686-1.397
		c0.409-0.004,0.813,0.085,1.181,0.264l-0.221,0.791c-0.289-0.163-0.612-0.252-0.944-0.258c-0.4,0-0.621,0.195-0.621,0.469
		c0,0.274,0.211,0.422,0.779,0.622c0.802,0.291,1.175,0.706,1.187,1.365c0,0.801-0.628,1.386-1.807,1.386
		c-0.473,0.011-0.938-0.097-1.357-0.311L148.153,22.81z"/>
	<path fill="#7E22CE" d="M153.308,18.119v1.271h1.054v0.838h-1.054v1.966c0,0.527,0.143,0.827,0.576,0.827
		c0.147,0.003,0.294-0.017,0.438-0.058v0.859c-0.266,0.082-0.542,0.119-0.817,0.11c-0.36,0.017-0.71-0.116-0.97-0.365
		c-0.267-0.357-0.389-0.8-0.343-1.243v-2.109h-0.643V19.39h0.643v-1.007L153.308,18.119z"/>
	<path fill="#7E22CE" d="M155.226,20.823c0-0.601,0-1.054-0.037-1.433h1.002v0.848h0.037c0.162-0.547,0.657-0.93,1.228-0.949
		c0.088-0.012,0.176-0.012,0.265,0v1.055c-0.108-0.023-0.217-0.035-0.328-0.037c-0.502-0.012-0.934,0.356-1.006,0.854
		c-0.021,0.113-0.034,0.227-0.037,0.342v2.309h-1.123V20.823z"/>
	<path fill="#7E22CE" d="M159.674,18.145c-0.03,0.349-0.338,0.605-0.687,0.573c-0.304-0.028-0.545-0.269-0.573-0.573
		c-0.006-0.334,0.261-0.61,0.597-0.616c0.013,0,0.023,0,0.036,0c0.329-0.017,0.61,0.235,0.627,0.563
		C159.676,18.109,159.676,18.127,159.674,18.145z M158.478,23.843V19.39h1.134v4.454H158.478z"/>
	<path fill="#7E22CE" d="M163.321,23.843l-0.075-0.495h-0.026c-0.322,0.39-0.805,0.609-1.311,0.595
		c-0.729,0.044-1.356-0.512-1.398-1.242c-0.003-0.028-0.003-0.058-0.003-0.085c0-1.123,0.995-1.692,2.635-1.681v-0.063
		c0-0.291-0.115-0.775-0.9-0.775c-0.422,0-0.838,0.113-1.203,0.327l-0.215-0.732c0.491-0.27,1.046-0.404,1.607-0.391
		c1.428,0,1.838,0.902,1.838,1.872v1.612c-0.005,0.353,0.018,0.705,0.064,1.055L163.321,23.843z M163.18,21.667
		c-0.797,0-1.556,0.153-1.556,0.833c-0.026,0.326,0.214,0.61,0.539,0.638c0.035,0.003,0.067,0.003,0.1,0
		c0.396,0.009,0.75-0.238,0.882-0.612c0.023-0.08,0.036-0.164,0.036-0.248L163.18,21.667L163.18,21.667z"/>
	<path fill="#7E22CE" d="M165.462,17.35h1.134v6.494h-1.134V17.35z"/>
	<path fill="#7E22CE" d="M36.959,37.256c-2.303-0.759-4.443-1.58-6.393-2.388C32.54,36.034,34.704,36.843,36.959,37.256z"/>
	<path fill="#7E22CE" d="M43.964,39.43c1.434,0.753,2.15,2.334,2.15,4.742c0,2.014-0.527,3.519-1.581,4.518
		c-1.054,0.996-3.118,1.494-6.193,1.49c-1.754-0.031-3.5-0.26-5.203-0.68c-1.371-0.345-2.715-0.791-4.021-1.334
		c-1.118-0.484-1.682-0.728-1.697-0.728l1.413,5.541c0.516,0.271,1.065,0.475,1.633,0.601c1.365,0.395,2.754,0.703,4.159,0.922
		c1.771,0.284,3.561,0.424,5.355,0.417c1.139,0,2.023,0,2.636-0.074c2.27-0.11,4.501-0.636,6.583-1.549
		c1.805-0.839,3.286-2.247,4.216-4.007c1.002-1.824,1.502-4.234,1.502-7.232c0-0.115,0-0.226,0-0.337
		c-4.138-0.771-7.964-1.629-11.516-2.571C43.595,39.244,43.785,39.318,43.964,39.43z"/>
	<path fill="#7E22CE" d="M57.104,42.443c0.035,4.185,0.932,7.226,2.693,9.123c1.76,1.896,4.529,2.984,8.307,3.262
		c0.527,0.049,1.239,0.075,2.167,0.075c1.943,0.048,3.883-0.172,5.766-0.654c1.508-0.438,2.262-0.79,2.262-1.054l1.107-4.507
		c-0.892,0.715-1.887,1.289-2.952,1.702c-1.507,0.682-3.593,1.021-6.256,1.019c-2.183-0.103-3.687-1.198-4.512-3.29
		c-0.653-1.557-1.11-3.19-1.36-4.86c-2.471-0.347-4.879-0.727-7.209-1.132C57.104,42.232,57.104,42.332,57.104,42.443z"/>
	<path fill="#7E22CE" d="M125.396,54.603h5.612v-9.814c-1.845,0.164-3.721,0.307-5.612,0.433V54.603z"/>
	<path fill="#7E22CE" d="M139.493,54.603h5.629V43.191c-1.834,0.264-3.688,0.527-5.611,0.732L139.493,54.603z"/>
	<path fill="#7E22CE" d="M109.561,54.603h7.327v-8.96c-2.408,0.095-4.849,0.162-7.327,0.2V54.603z"/>
	<path fill="#7E22CE" d="M80.262,42.918c0.026-0.18,0.059-0.49,0.095-0.945c0.037-0.452,0.059-0.996,0.059-1.643
		c0-3.438-0.704-6.164-2.109-8.18c-1.644-2.436-4.781-3.653-9.414-3.653c-3.865,0.038-6.792,1.173-8.781,3.404
		c-1.989,2.231-2.991,5.639-3.009,10.22c2.329,0.404,4.743,0.785,7.209,1.133c0-0.11-0.037-0.233-0.047-0.337H80.262z M69.59,31.77
		c3.995,0,5.992,2.568,5.992,7.705h-11.3C64.282,34.451,66.05,31.882,69.59,31.77z"/>
	<path fill="#7E22CE" d="M143.015,30.473c-1.386-1.266-3.469-1.9-6.252-1.903c-1.28,0.014-2.546,0.277-3.727,0.775
		c-0.83,0.346-1.585,0.853-2.218,1.492c-0.527,0.527-0.759,0.828-0.771,0.854c-0.149-0.535-0.677-1.2-1.579-1.998
		c-0.905-0.797-2.454-1.195-4.649-1.195c-3.12,0-5.437,0.753-6.946,2.26V28.65h-7.327v17.213c2.458-0.041,4.901-0.108,7.327-0.199
		v-8.909c0.188-0.882,0.547-1.72,1.052-2.467c0.606-1.005,1.688-1.579,3.231-1.737c1.451,0,2.519,0.331,3.2,0.996
		c0.679,0.652,1.051,1.563,1.028,2.502v9.172c1.892-0.126,3.767-0.269,5.612-0.433v-8.265c0.232-0.854,0.614-1.658,1.128-2.377
		c0.634-0.966,1.688-1.493,3.162-1.581c2.813,0,4.217,1.167,4.217,3.501v7.874c1.903-0.228,3.779-0.471,5.615-0.733v-7.785
		C145.178,33.545,144.409,31.734,143.015,30.473z"/>
	<path fill="#7E22CE" d="M168.676,30.615c-1.784-1.359-4.683-2.042-8.695-2.045c-1.714-0.016-3.422,0.192-5.081,0.623
		c-1.151,0.293-2.266,0.722-3.314,1.28c-0.798,0.458-1.192,0.732-1.192,0.822l-1.084,5.154c0.527-0.747,1.61-1.682,3.284-2.789
		c1.67-1.105,4.005-1.664,7.007-1.664c1.239-0.069,2.463,0.281,3.475,0.997c0.794,0.553,1.271,1.454,1.286,2.419
		c-0.041,1.01-0.563,1.938-1.4,2.497c-1.169,0.827-2.555,1.288-3.986,1.325c-3.741,0.281-6.552,1.075-8.432,2.381
		c-0.372,0.262-0.715,0.561-1.021,0.892c7.389-1.149,14.682-2.837,21.825-5.048v-1.488C171.39,33.855,170.393,31.853,168.676,30.615
		z"/>
	<path fill="#7E22CE" d="M85.38,50.032c0.765,2.01,2.274,3.647,4.216,4.57c1.943,0.935,4.578,1.4,7.906,1.397
		c1.975-0.023,3.945-0.217,5.888-0.576c1.539-0.32,2.309-0.525,2.309-0.643l0.484-4.518c0,0.079-0.395,0.302-1.17,0.672
		c-0.999,0.446-2.041,0.795-3.109,1.031c-1.503,0.333-3.041,0.488-4.581,0.466c-2.224-0.168-3.693-1.251-4.411-3.252
		c-0.327-0.95-0.566-1.928-0.717-2.922c-2.657-0.111-5.278-0.252-7.864-0.416C84.503,47.278,84.857,48.685,85.38,50.032z"/>
	<path fill="#7E22CE" d="M93.165,34.768c0.868-1.734,2.614-2.601,5.239-2.598c1.68,0,3.354,0.208,4.981,0.624
		c0.937,0.232,1.851,0.547,2.735,0.938l-0.817-3.937c-0.67-0.189-1.771-0.428-3.309-0.722c-1.72-0.317-3.461-0.494-5.209-0.527
		c-3.04,0-5.466,0.464-7.288,1.392c-1.781,0.892-3.189,2.386-3.974,4.217c-0.924,2.286-1.403,4.729-1.414,7.193
		c-0.008,1.494,0.08,2.988,0.264,4.471c2.582,0.17,5.204,0.308,7.864,0.416c-0.247-1.617-0.365-3.25-0.353-4.887
		C91.799,39.084,92.237,36.834,93.165,34.768z"/>
	<path fill="#7E22CE" d="M162.435,8.949c0,0,31.798,10.483,18.95,41.321c0,0,1.345-14.077-3.447-23.981
		C173.352,16.813,162.435,8.949,162.435,8.949z"/>
	<path fill="#7E22CE" d="M173.636,8c0,0,24.55,8.633,15.027,32.836c0,0,0.875-11.101-2.92-18.975
		C182.111,14.329,173.636,8,173.636,8z"/>
</g>
</svg>
