<?xml version="1.0" encoding="utf-8"?>
<!-- Generator: Adobe Illustrator 16.0.0, SVG Export Plug-In . SVG Version: 6.00 Build 0)  -->
<!DOCTYPE svg PUBLIC "-//W3C//DTD SVG 1.1//EN" "http://www.w3.org/Graphics/SVG/1.1/DTD/svg11.dtd">
<svg version="1.1" id="logo-9" xmlns="http://www.w3.org/2000/svg" xmlns:xlink="http://www.w3.org/1999/xlink" x="0px" y="0px"
	 width="136.327px" height="40px" viewBox="2.882 -4 136.327 40" enable-background="new 2.882 -4 136.327 40" xml:space="preserve"
	>
<g>
	<path fill="#FFFFFF" d="M27.377,8.184c0.381,0.208,0.809,0.32,1.243,0.325c0.601,0,0.935-0.281,0.935-0.698
		c0-0.417-0.259-0.619-0.913-0.852c-0.843-0.308-1.384-0.756-1.384-1.494c0-0.838,0.698-1.476,1.809-1.476
		c0.426-0.012,0.849,0.075,1.234,0.255L30.073,5c-0.313-0.161-0.659-0.243-1.011-0.242c-0.596,0-0.877,0.316-0.877,0.614
		c0,0.396,0.299,0.58,0.984,0.844c0.877,0.338,1.317,0.786,1.317,1.523c0,0.821-0.624,1.538-1.949,1.538
		c-0.481,0.005-0.958-0.105-1.388-0.321L27.377,8.184z"/>
	<path fill="#FFFFFF" d="M32.024,7.604c0.022,0.668,0.548,0.957,1.142,0.957c0.35,0.009,0.698-0.047,1.028-0.167L34.33,9.04
		c-0.413,0.159-0.851,0.237-1.292,0.229c-0.967,0.09-1.823-0.62-1.912-1.587c-0.01-0.094-0.01-0.189-0.004-0.283
		c0-1.028,0.629-1.994,1.814-1.994c1.187,0,1.599,0.988,1.599,1.805c0.002,0.132-0.008,0.265-0.03,0.396H32.024z M33.652,6.95
		c0.061-0.438-0.244-0.841-0.681-0.902c-0.029-0.004-0.057-0.006-0.086-0.007c-0.488,0.021-0.874,0.42-0.879,0.909H33.652z"/>
	<path fill="#FFFFFF" d="M38.678,5.496c0,0.25-0.031,0.554-0.031,1.063v2.104c0,0.777-0.159,1.317-0.545,1.682
		c-0.408,0.313-0.917,0.47-1.432,0.439c-0.449,0.013-0.896-0.088-1.295-0.294l0.206-0.711c0.33,0.187,0.702,0.284,1.081,0.286
		c0.544,0.049,1.024-0.353,1.073-0.896c0.007-0.075,0.005-0.15-0.005-0.225V8.622l0,0c-0.242,0.358-0.65,0.565-1.082,0.549
		c-0.921,0-1.576-0.764-1.576-1.814c0-1.216,0.79-1.954,1.682-1.954c0.438-0.025,0.853,0.197,1.075,0.575l0,0l0.019-0.483H38.678z
		 M37.711,6.98c0.001-0.084-0.009-0.168-0.031-0.25c-0.081-0.354-0.396-0.604-0.76-0.602c-0.526,0-0.913,0.439-0.913,1.207
		c0,0.632,0.321,1.143,0.904,1.143c0.349,0,0.658-0.228,0.761-0.563c0.025-0.109,0.039-0.221,0.039-0.333V6.98z"/>
	<path fill="#FFFFFF" d="M42.974,8.091c0,0.439,0,0.808,0.031,1.111h-0.822l-0.044-0.562l0,0c-0.247,0.416-0.702,0.664-1.185,0.646
		c-0.678,0-1.318-0.404-1.318-1.612V5.479h0.936v2.016c0,0.619,0.197,1.015,0.693,1.015c0.312,0,0.592-0.182,0.72-0.465
		c0.036-0.093,0.053-0.191,0.053-0.291V5.496h0.936V8.091z"/>
	<path fill="#FFFFFF" d="M43.997,6.69c0-0.505,0-0.878-0.03-1.194h0.816l0.031,0.707h0.03c0.132-0.453,0.54-0.771,1.011-0.79
		c0.076-0.002,0.15,0.005,0.225,0.022v0.878c-0.091-0.018-0.184-0.028-0.277-0.03c-0.417-0.009-0.778,0.293-0.839,0.708
		c-0.018,0.095-0.028,0.192-0.032,0.289v1.919h-0.935V6.69z"/>
	<path fill="#FFFFFF" d="M47.699,4.459c0.008,0.274-0.208,0.503-0.481,0.512c-0.019,0-0.037,0-0.055-0.002
		c-0.271,0.022-0.508-0.18-0.53-0.451c-0.001-0.02-0.002-0.039-0.001-0.059c0-0.291,0.237-0.526,0.528-0.525
		c0.29,0,0.525,0.235,0.525,0.525H47.699z M46.703,9.202V5.496h0.943v3.706H46.703z"/>
	<path fill="#FFFFFF" d="M52.069,3.796v4.361c0,0.382,0,0.794,0.031,1.045h-0.839l-0.039-0.588l0,0
		c-0.245,0.436-0.714,0.696-1.213,0.672c-0.878,0-1.581-0.755-1.581-1.897c0-1.238,0.768-1.976,1.66-1.976
		c0.408-0.031,0.802,0.154,1.041,0.487l0,0V3.796H52.069z M51.134,7.042c0-0.083-0.009-0.166-0.026-0.246
		c-0.074-0.386-0.412-0.664-0.803-0.663c-0.602,0-0.94,0.536-0.94,1.225c0,0.69,0.338,1.173,0.931,1.173
		c0.391,0,0.729-0.276,0.808-0.659c0.022-0.09,0.032-0.183,0.031-0.276V7.042z"/>
	<path fill="#FFFFFF" d="M55.162,9.202L55.1,8.79h-0.022c-0.27,0.326-0.675,0.509-1.098,0.497c-0.605,0.037-1.126-0.425-1.162-1.03
		c-0.002-0.024-0.002-0.049-0.002-0.072c0-0.94,0.83-1.41,2.196-1.401V6.726c0-0.246-0.097-0.65-0.755-0.65
		c-0.351,0.001-0.696,0.097-0.998,0.277l-0.18-0.61c0.411-0.224,0.873-0.336,1.339-0.326c1.186,0,1.529,0.751,1.529,1.56v1.318
		C55.945,8.587,55.963,8.881,56,9.171L55.162,9.202z M55.039,7.389c-0.664,0-1.292,0.132-1.292,0.694
		c-0.025,0.269,0.171,0.505,0.439,0.531c0.031,0.003,0.062,0.003,0.092,0c0.328,0.007,0.623-0.199,0.729-0.509
		c0.022-0.066,0.033-0.137,0.03-0.206V7.389z"/>
	<path fill="#FFFFFF" d="M60.362,3.796v4.361c0,0.382,0,0.794,0.03,1.045h-0.834l-0.04-0.588l0,0
		c-0.244,0.435-0.71,0.694-1.208,0.672c-0.878,0-1.585-0.755-1.585-1.897c0-1.238,0.769-1.976,1.66-1.976
		c0.41-0.029,0.805,0.155,1.045,0.487l0,0V3.796H60.362z M59.426,7.042c0.007-0.082,0.007-0.164,0-0.246
		c-0.076-0.386-0.415-0.664-0.808-0.663c-0.602,0-0.936,0.536-0.936,1.225c0,0.69,0.334,1.173,0.927,1.173
		c0.391,0,0.729-0.276,0.808-0.659c0.021-0.09,0.032-0.183,0.03-0.276L59.426,7.042z"/>
	<path fill="#FFFFFF" d="M63.534,5.496L64.2,7.481c0.081,0.228,0.154,0.508,0.208,0.725h0.022c0.061-0.216,0.132-0.488,0.198-0.734
		l0.579-1.976h1.006l-0.925,2.547c-0.515,1.388-0.857,2.002-1.296,2.384c-0.273,0.252-0.615,0.42-0.984,0.479l-0.211-0.791
		c0.198-0.052,0.383-0.14,0.549-0.259c0.214-0.154,0.388-0.355,0.509-0.589c0.034-0.05,0.054-0.106,0.061-0.166
		c-0.002-0.065-0.022-0.126-0.056-0.181l-1.353-3.403L63.534,5.496z"/>
	<path fill="#FFFFFF" d="M68.347,8.184c0.379,0.208,0.806,0.32,1.238,0.325c0.603,0,0.94-0.281,0.94-0.698
		c0-0.417-0.259-0.619-0.913-0.852c-0.848-0.308-1.389-0.756-1.389-1.494c0-0.838,0.703-1.476,1.814-1.476
		c0.427-0.012,0.85,0.076,1.235,0.255L71.042,5c-0.315-0.161-0.667-0.244-1.023-0.242c-0.593,0-0.852,0.316-0.852,0.614
		c0,0.396,0.298,0.58,0.984,0.844C71.03,6.554,71.47,7.002,71.47,7.74c0,0.821-0.625,1.538-1.946,1.538
		c-0.481,0.006-0.958-0.104-1.389-0.321L68.347,8.184z"/>
	<path fill="#FFFFFF" d="M74.417,9.202L74.355,8.79h-0.021c-0.271,0.325-0.677,0.508-1.099,0.497
		c-0.605,0.037-1.126-0.425-1.162-1.03c0-0.024-0.003-0.049-0.003-0.072c0-0.94,0.83-1.41,2.197-1.401V6.726
		c0-0.246-0.1-0.65-0.757-0.65c-0.349,0-0.695,0.096-0.996,0.277l-0.181-0.61c0.41-0.224,0.874-0.336,1.341-0.326
		c1.187,0,1.528,0.751,1.528,1.56v1.318c-0.005,0.293,0.012,0.587,0.054,0.877L74.417,9.202z M74.301,7.389
		c-0.661,0-1.294,0.132-1.294,0.694c-0.024,0.271,0.176,0.509,0.447,0.532c0.029,0.002,0.059,0.001,0.088-0.001
		c0.327,0.007,0.622-0.199,0.729-0.509c0.02-0.067,0.029-0.137,0.029-0.206V7.389z"/>
	<path fill="#FFFFFF" d="M76.199,3.796h0.944v5.406h-0.944V3.796z"/>
	<path fill="#FFFFFF" d="M81.475,8.091c0,0.439,0,0.808,0.031,1.111h-0.822l-0.047-0.562l0,0c-0.254,0.413-0.708,0.659-1.191,0.646
		c-0.676,0-1.291-0.404-1.291-1.612V5.479h0.935v2.016c0,0.619,0.198,1.015,0.695,1.015c0.304-0.007,0.577-0.188,0.701-0.465
		c0.036-0.093,0.054-0.191,0.054-0.291V5.496h0.936V8.091z"/>
	<path fill="#FFFFFF" d="M85.906,3.796v4.361c0,0.382,0,0.794,0.032,1.045h-0.835l-0.039-0.588l0,0
		c-0.244,0.435-0.711,0.694-1.209,0.672c-0.879,0-1.585-0.755-1.585-1.897c0-1.238,0.77-1.976,1.661-1.976
		c0.407-0.029,0.803,0.155,1.045,0.487l0,0V3.796H85.906z M84.971,7.042c0.007-0.082,0.007-0.164,0-0.246
		c-0.076-0.386-0.415-0.664-0.809-0.663c-0.601,0-0.935,0.536-0.935,1.225c0,0.69,0.334,1.173,0.927,1.173
		c0.392,0,0.729-0.276,0.809-0.659c0.021-0.09,0.031-0.183,0.029-0.276L84.971,7.042z"/>
	<path fill="#FFFFFF" d="M89.465,4.09v5.112h-0.938V4.09H89.465z"/>
	<path fill="#FFFFFF" d="M90.554,6.598c0-0.438,0-0.782-0.031-1.102h0.822l0.044,0.554h0.044c0.242-0.406,0.682-0.65,1.155-0.642
		c0.649,0,1.317,0.439,1.317,1.59v2.195h-0.937V7.108c0-0.532-0.198-0.936-0.706-0.936c-0.339,0.009-0.633,0.231-0.734,0.554
		c-0.027,0.098-0.039,0.201-0.034,0.303v2.195h-0.94V6.598z"/>
	<path fill="#FFFFFF" d="M98.323,3.796v4.361c0,0.382,0,0.794,0.032,1.045h-0.84l-0.039-0.588l0,0
		c-0.244,0.436-0.713,0.696-1.212,0.672c-0.878,0-1.581-0.755-1.581-1.897c0-1.238,0.769-1.976,1.66-1.976
		c0.407-0.031,0.803,0.154,1.04,0.487l0,0V3.796H98.323z M97.388,7.042c0-0.083-0.008-0.166-0.027-0.246
		c-0.073-0.386-0.41-0.664-0.803-0.663c-0.602,0-0.936,0.536-0.936,1.225c0,0.69,0.334,1.173,0.926,1.173
		c0.393,0,0.729-0.276,0.81-0.659c0.021-0.09,0.032-0.183,0.03-0.276V7.042z"/>
	<path fill="#FFFFFF" d="M102.649,8.091c0,0.439,0,0.808,0.032,1.111h-0.821l-0.048-0.562l0,0c-0.254,0.413-0.708,0.659-1.191,0.646
		c-0.677,0-1.292-0.404-1.292-1.612V5.479h0.938v2.016c0,0.619,0.195,1.015,0.693,1.015c0.303-0.009,0.576-0.189,0.703-0.465
		c0.032-0.094,0.049-0.191,0.052-0.291V5.496h0.935V8.091z"/>
	<path fill="#FFFFFF" d="M103.616,8.341c0.293,0.164,0.62,0.255,0.954,0.269c0.413,0,0.592-0.167,0.592-0.414
		c0-0.246-0.152-0.382-0.61-0.54c-0.721-0.25-1.023-0.645-1.019-1.081c0-0.654,0.54-1.164,1.401-1.164
		c0.34-0.004,0.677,0.071,0.984,0.22l-0.186,0.654c-0.237-0.136-0.506-0.21-0.781-0.215c-0.338,0-0.518,0.162-0.518,0.391
		c0,0.228,0.176,0.347,0.645,0.514c0.673,0.246,0.983,0.588,0.993,1.137c0,0.667-0.527,1.155-1.511,1.155
		c-0.391,0.008-0.776-0.081-1.126-0.259L103.616,8.341z"/>
	<path fill="#FFFFFF" d="M107.913,4.437v1.059h0.877v0.698h-0.877v1.638c0,0.439,0.122,0.685,0.479,0.685
		c0.125,0.002,0.249-0.013,0.369-0.047v0.715c-0.218,0.071-0.447,0.101-0.677,0.093c-0.3,0.013-0.593-0.097-0.808-0.304
		c-0.223-0.296-0.327-0.667-0.291-1.036V6.181h-0.532V5.496h0.532V4.657L107.913,4.437z"/>
	<path fill="#FFFFFF" d="M109.509,6.69c0-0.505,0-0.878-0.024-1.194h0.835l0.029,0.707h0.032c0.129-0.448,0.526-0.767,0.991-0.794
		c0.075-0.002,0.148,0.005,0.22,0.022v0.878c-0.091-0.019-0.184-0.029-0.276-0.031c-0.417-0.009-0.774,0.294-0.835,0.707
		c-0.02,0.095-0.029,0.193-0.029,0.29v1.919h-0.942V6.69z"/>
	<path fill="#FFFFFF" d="M113.222,4.459c0.008,0.274-0.207,0.503-0.482,0.511c-0.016,0.001-0.032,0-0.049-0.001
		c-0.269,0.017-0.501-0.187-0.518-0.456c-0.001-0.015-0.001-0.03-0.001-0.045c0.027-0.29,0.283-0.503,0.572-0.477
		c0.253,0.023,0.453,0.223,0.478,0.477V4.459z M112.224,9.202V5.496h0.944v3.706H112.224z"/>
	<path fill="#FFFFFF" d="M116.262,9.202l-0.063-0.413h-0.022c-0.269,0.325-0.674,0.508-1.096,0.497
		c-0.605,0.037-1.126-0.425-1.162-1.03c-0.003-0.024-0.003-0.049-0.003-0.072c0-0.94,0.83-1.41,2.197-1.401V6.726
		c0-0.246-0.103-0.65-0.757-0.65c-0.352,0-0.695,0.096-0.996,0.277l-0.186-0.61c0.413-0.224,0.877-0.336,1.346-0.326
		c1.184,0,1.528,0.751,1.528,1.56v1.318c-0.005,0.293,0.012,0.587,0.051,0.877L116.262,9.202z M116.137,7.389
		c-0.661,0-1.294,0.132-1.294,0.694c-0.024,0.271,0.176,0.509,0.447,0.532c0.029,0.002,0.059,0.001,0.088-0.001
		c0.327,0.007,0.622-0.199,0.729-0.509c0.02-0.067,0.029-0.137,0.029-0.206V7.389z"/>
	<path fill="#FFFFFF" d="M118.044,3.796h0.944v5.406h-0.944V3.796z"/>
	<path fill="#FFFFFF" d="M10.959,20.38c-1.919-0.632-3.703-1.315-5.328-1.989C7.276,19.361,9.08,20.035,10.959,20.38z"/>
	<path fill="#FFFFFF" d="M16.796,22.191c1.195,0.627,1.792,1.945,1.792,3.953c0,1.677-0.439,2.932-1.317,3.764
		c-0.879,0.83-2.599,1.246-5.161,1.241c-1.461-0.024-2.916-0.216-4.335-0.566c-1.143-0.286-2.263-0.657-3.351-1.111
		c-0.931-0.403-1.401-0.605-1.414-0.605l1.177,4.616c0.43,0.228,0.887,0.396,1.362,0.501c1.138,0.329,2.295,0.586,3.465,0.769
		c1.475,0.237,2.968,0.354,4.462,0.348c0.948,0,1.687,0,2.196-0.062c1.892-0.093,3.752-0.53,5.486-1.292
		c1.505-0.699,2.739-1.872,3.514-3.339c0.835-1.519,1.251-3.528,1.251-6.026c0-0.095,0-0.188,0-0.28
		c-3.448-0.642-6.636-1.357-9.597-2.144C16.489,22.037,16.647,22.099,16.796,22.191z"/>
	<path fill="#FFFFFF" d="M27.746,24.703c0.029,3.486,0.777,6.021,2.244,7.602c1.466,1.581,3.774,2.487,6.921,2.719
		c0.439,0.04,1.033,0.062,1.806,0.062c1.62,0.041,3.236-0.142,4.805-0.545c1.257-0.365,1.885-0.658,1.885-0.878l0.923-3.756
		c-0.744,0.596-1.572,1.074-2.46,1.419c-1.256,0.568-2.994,0.852-5.213,0.849c-1.819-0.085-3.073-0.998-3.76-2.741
		c-0.544-1.296-0.925-2.659-1.134-4.05c-2.059-0.289-4.066-0.605-6.007-0.943C27.746,24.527,27.746,24.611,27.746,24.703z"/>
	<path fill="#FFFFFF" d="M84.656,34.836h4.678v-8.18c-1.538,0.137-3.101,0.257-4.678,0.361V34.836z"/>
	<path fill="#FFFFFF" d="M96.404,34.836h4.69v-9.51c-1.528,0.22-3.074,0.439-4.676,0.61L96.404,34.836z"/>
	<path fill="#FFFFFF" d="M71.46,34.836h6.106v-7.467c-2.007,0.078-4.041,0.135-6.106,0.166V34.836z"/>
	<path fill="#FFFFFF" d="M103.292,28.92c0.034,2.029,0.703,3.514,2.017,4.453c1.452,0.988,3.169,1.521,4.927,1.523
		c2.314,0,3.954-0.293,4.924-0.879c0.967-0.578,1.538-1.066,1.704-1.457v2.275h6.105v-14.28c-5.952,1.843-12.03,3.249-18.188,4.209
		C103.755,25.897,103.22,27.392,103.292,28.92z M109.62,26.881c1.206-0.619,2.517-1.006,3.866-1.133
		c0.77-0.056,1.521-0.251,2.222-0.57c0.381-0.174,0.706-0.449,0.936-0.801c0.137-0.271,0.212-0.438,0.22-0.438v4.927
		c0,1.198-0.991,2.065-2.979,2.604c-0.674,0.203-1.372,0.311-2.077,0.315c-2.21,0-3.382-0.731-3.514-2.194
		c-0.012-1.282,0.428-2.186,1.318-2.711H109.62z"/>
	<path fill="#FFFFFF" d="M10.959,20.38c1.682,0.55,3.474,1.077,5.363,1.577c-1.728-0.703-3.521-1.23-5.354-1.577H10.959z"/>
	<path fill="#FFFFFF" d="M23.674,18.781c-1.474-1.236-3.21-2.117-5.077-2.577c-1.942-0.496-3.87-1.037-5.785-1.625
		c-1.91-0.589-2.864-1.454-2.864-2.61c0.115-1.49,0.675-2.446,1.683-2.867c1.335-0.474,2.749-0.684,4.164-0.62
		c1.583-0.033,3.164,0.113,4.712,0.439c1.553,0.398,3.064,0.941,4.516,1.621l-1.23-4.866c-1.146-0.385-2.321-0.679-3.514-0.878
		c-2.404-0.405-4.841-0.583-7.278-0.532C11.289,4.318,9.595,4.637,7.981,5.21C6.563,5.71,5.31,6.59,4.357,7.753
		C3.402,9,2.884,10.526,2.882,12.098c0,2.757,0.68,4.686,2.029,5.779c0.234,0.184,0.477,0.354,0.729,0.514
		c1.625,0.695,3.408,1.357,5.328,1.989l0,0c1.834,0.347,3.629,0.874,5.358,1.577c2.965,0.786,6.171,1.502,9.589,2.144
		C25.812,21.73,25.065,19.955,23.674,18.781z"/>
	<path fill="#FFFFFF" d="M47.045,25.1c0.022-0.152,0.049-0.41,0.079-0.789c0.031-0.376,0.049-0.83,0.049-1.369
		c0-2.864-0.586-5.137-1.758-6.817c-1.37-2.029-3.984-3.043-7.844-3.043c-3.221,0.032-5.66,0.978-7.317,2.837
		c-1.658,1.859-2.493,4.699-2.508,8.517c1.94,0.336,3.952,0.654,6.008,0.944c0-0.093-0.031-0.195-0.039-0.28H47.045z M38.151,15.809
		c3.329,0,4.994,2.14,4.994,6.422h-9.417C33.728,18.043,35.202,15.902,38.151,15.809z"/>
	<path fill="#FFFFFF" d="M99.338,14.728c-1.154-1.055-2.891-1.583-5.21-1.585c-1.066,0.012-2.121,0.23-3.105,0.646
		c-0.691,0.288-1.32,0.71-1.848,1.243c-0.439,0.439-0.633,0.69-0.643,0.712c-0.125-0.446-0.563-1-1.316-1.665
		c-0.754-0.664-2.045-0.996-3.874-0.996c-2.601,0-4.531,0.627-5.789,1.883v-1.756h-6.105v14.344c2.048-0.034,4.084-0.09,6.105-0.166
		v-7.424c0.156-0.735,0.457-1.434,0.877-2.057c0.506-0.837,1.406-1.316,2.693-1.448c1.208,0,2.099,0.276,2.666,0.831
		c0.566,0.545,0.876,1.301,0.856,2.085v7.644c1.577-0.104,3.14-0.225,4.678-0.361V19.77c0.193-0.711,0.513-1.382,0.94-1.98
		c0.527-0.805,1.405-1.244,2.634-1.318c2.344,0,3.516,0.972,3.516,2.917v6.563c1.585-0.19,3.149-0.393,4.678-0.613v-6.486
		C101.14,17.287,100.5,15.778,99.338,14.728z"/>
	<path fill="#FFFFFF" d="M120.722,14.847c-1.486-1.133-3.901-1.702-7.246-1.704c-1.428-0.014-2.851,0.16-4.233,0.519
		c-0.959,0.244-1.887,0.602-2.763,1.067c-0.664,0.382-0.992,0.61-0.992,0.685l-0.905,4.296c0.439-0.623,1.343-1.402,2.737-2.324
		c1.392-0.922,3.337-1.387,5.839-1.387c1.033-0.057,2.054,0.234,2.896,0.831c0.662,0.461,1.06,1.211,1.072,2.016
		c-0.034,0.84-0.469,1.614-1.167,2.08c-0.975,0.689-2.129,1.074-3.322,1.104c-3.118,0.234-5.46,0.896-7.026,1.985
		c-0.311,0.218-0.596,0.466-0.853,0.742c6.157-0.957,12.236-2.363,18.188-4.206v-1.24C122.986,17.545,122.153,15.878,120.722,14.847
		z"/>
	<path fill="#FFFFFF" d="M51.31,31.027c0.637,1.674,1.896,3.039,3.514,3.809c1.619,0.778,3.815,1.166,6.589,1.164
		c1.646-0.02,3.287-0.181,4.906-0.48c1.282-0.267,1.924-0.438,1.924-0.535l0.403-3.765c0,0.065-0.33,0.251-0.975,0.56
		c-0.833,0.371-1.7,0.661-2.591,0.859c-1.252,0.277-2.534,0.407-3.817,0.388c-1.854-0.14-3.079-1.042-3.676-2.71
		c-0.272-0.791-0.472-1.606-0.598-2.434c-2.214-0.094-4.398-0.211-6.553-0.348C50.58,28.732,50.874,29.904,51.31,31.027z"/>
	<path fill="#FFFFFF" d="M57.797,18.307c0.723-1.445,2.178-2.167,4.366-2.165c1.4,0,2.794,0.174,4.152,0.521
		c0.78,0.192,1.542,0.456,2.279,0.781l-0.681-3.282c-0.559-0.159-1.476-0.356-2.757-0.602c-1.433-0.265-2.884-0.412-4.34-0.439
		c-2.534,0-4.555,0.387-6.074,1.16c-1.484,0.743-2.658,1.988-3.312,3.515c-0.77,1.904-1.169,3.939-1.177,5.993
		c-0.007,1.245,0.066,2.49,0.22,3.726c2.152,0.142,4.336,0.256,6.553,0.347c-0.206-1.348-0.304-2.708-0.294-4.072
		C56.659,21.903,57.024,20.028,57.797,18.307z"/>
	<path fill="#FFFFFF" d="M115.522-3.209c0,0,26.499,8.736,15.791,34.434c0,0,1.121-11.73-2.871-19.984
		C124.619,3.344,115.522-3.209,115.522-3.209z"/>
	<path fill="#FFFFFF" d="M124.856-4c0,0,20.459,7.194,12.524,27.363c0,0,0.728-9.25-2.435-15.812C131.918,1.275,124.856-4,124.856-4
		z"/>
	<path fill="#FFFFFF" d="M27.377,8.179c0.38,0.212,0.808,0.325,1.243,0.33c0.601,0,0.939-0.281,0.939-0.703
		c0-0.421-0.259-0.614-0.917-0.852c-0.843-0.303-1.384-0.755-1.384-1.494c0-0.838,0.698-1.48,1.814-1.48
		c0.426-0.011,0.849,0.078,1.234,0.259l-0.229,0.755c-0.313-0.161-0.662-0.246-1.016-0.246c-0.592,0-0.851,0.321-0.851,0.62
		c0,0.396,0.299,0.58,0.983,0.848c0.879,0.334,1.318,0.782,1.318,1.523c0,0.821-0.628,1.538-1.954,1.538
		c-0.48,0.003-0.954-0.106-1.384-0.321L27.377,8.179z"/>
	<path fill="#FFFFFF" d="M32.024,7.604c0.021,0.557,0.491,0.991,1.049,0.971c0.032-0.001,0.064-0.005,0.098-0.009
		c0.349,0.009,0.698-0.049,1.028-0.167l0.135,0.646c-0.42,0.161-0.868,0.238-1.317,0.229c-0.967,0.088-1.821-0.625-1.908-1.592
		c-0.008-0.094-0.01-0.189-0.002-0.283c0-1.028,0.624-1.994,1.814-1.994c1.19,0,1.598,0.988,1.598,1.805
		c0,0.132-0.01,0.265-0.031,0.396H32.024z M33.657,6.95c0.059-0.44-0.251-0.844-0.691-0.902c-0.027-0.004-0.055-0.006-0.082-0.007
		c-0.487,0.023-0.873,0.422-0.879,0.909H33.657z"/>
	<path fill="#FFFFFF" d="M38.682,5.492c0,0.25-0.03,0.553-0.03,1.067v2.104c0,0.777-0.158,1.317-0.549,1.682
		c-0.408,0.315-0.917,0.471-1.432,0.439c-0.449,0.013-0.896-0.088-1.295-0.294l0.206-0.711c0.33,0.187,0.702,0.284,1.081,0.286
		c0.544,0.049,1.024-0.353,1.073-0.896c0.007-0.075,0.005-0.15-0.005-0.225V8.622l0,0c-0.243,0.356-0.65,0.563-1.082,0.549
		c-0.921,0-1.581-0.764-1.581-1.814c0-1.221,0.794-1.958,1.687-1.958c0.439-0.025,0.854,0.199,1.075,0.58l0,0l0.041-0.497
		L38.682,5.492z M37.716,6.976c0.001-0.084-0.01-0.168-0.031-0.25c-0.084-0.354-0.401-0.604-0.765-0.602
		c-0.522,0-0.913,0.439-0.913,1.211c0,0.632,0.321,1.143,0.909,1.143c0.349,0,0.658-0.228,0.759-0.563
		c0.024-0.111,0.038-0.225,0.041-0.338V6.976z"/>
	<path fill="#FFFFFF" d="M42.978,8.086c0,0.439,0,0.809,0.03,1.116h-0.82l-0.044-0.566l0,0c-0.255,0.427-0.725,0.676-1.222,0.65
		c-0.676,0-1.317-0.404-1.317-1.616V5.474h0.94v2.02c0,0.615,0.198,1.01,0.693,1.01c0.321,0.015,0.619-0.168,0.752-0.46
		c0.034-0.094,0.051-0.191,0.053-0.291V5.514h0.935V8.086z"/>
	<path fill="#FFFFFF" d="M43.997,6.686c0-0.5,0-0.878-0.03-1.194h0.813l0.03,0.707h0.031c0.134-0.453,0.542-0.771,1.014-0.791
		c0.073-0.01,0.146-0.01,0.22,0v0.878c-0.089-0.019-0.181-0.029-0.272-0.031c-0.42-0.011-0.781,0.295-0.839,0.712
		c-0.021,0.093-0.03,0.189-0.032,0.285v1.924h-0.935V6.686z"/>
	<path fill="#FFFFFF" d="M47.699,4.455c-0.026,0.29-0.283,0.504-0.573,0.478c-0.252-0.024-0.454-0.224-0.477-0.478
		c0.027-0.29,0.283-0.503,0.574-0.477C47.476,4.001,47.676,4.202,47.699,4.455z M46.703,9.202v-3.71h0.943v3.71H46.703z"/>
	<path fill="#FFFFFF" d="M52.074,3.792v4.365c0,0.382,0,0.794,0.031,1.045h-0.839l-0.039-0.588l0,0
		c-0.244,0.436-0.714,0.696-1.213,0.672c-0.878,0-1.585-0.755-1.585-1.897c0-1.243,0.768-1.98,1.66-1.98
		c0.409-0.031,0.805,0.154,1.045,0.488l0,0V3.792H52.074z M51.134,7.038c0.001-0.083-0.006-0.165-0.021-0.246
		c-0.078-0.385-0.417-0.661-0.808-0.659c-0.602,0-0.936,0.531-0.936,1.225c0,0.695,0.333,1.173,0.926,1.173
		c0.394,0.001,0.732-0.277,0.808-0.663c0.024-0.089,0.034-0.181,0.031-0.272V7.038z"/>
	<path fill="#FFFFFF" d="M55.166,9.202L55.104,8.79l0,0c-0.271,0.325-0.675,0.508-1.098,0.497c-0.608,0.037-1.129-0.427-1.166-1.035
		c-0.001-0.023-0.002-0.047-0.002-0.072c0-0.935,0.83-1.409,2.196-1.401V6.726c0-0.242-0.101-0.646-0.755-0.646
		c-0.351,0-0.695,0.095-0.998,0.272l-0.184-0.61c0.411-0.224,0.873-0.336,1.34-0.326c1.19,0,1.533,0.751,1.533,1.56v1.343
		c-0.003,0.294,0.015,0.587,0.052,0.879L55.166,9.202z M55.043,7.389c-0.664,0-1.318,0.127-1.318,0.694
		c-0.022,0.271,0.178,0.509,0.449,0.531c0.027,0.002,0.055,0.002,0.083,0c0.329,0.007,0.625-0.198,0.733-0.509
		c0.021-0.067,0.031-0.137,0.031-0.206L55.043,7.389z"/>
	<path fill="#FFFFFF" d="M60.366,3.792v4.365c0,0.382,0,0.794,0.031,1.045h-0.839l-0.035-0.588l0,0
		c-0.244,0.436-0.713,0.696-1.212,0.672c-0.878,0-1.585-0.755-1.585-1.897c0-1.243,0.773-1.98,1.665-1.98
		c0.408-0.031,0.803,0.154,1.041,0.488l0,0V3.792H60.366z M59.431,7.038c0.006-0.082,0.006-0.164,0-0.246
		c-0.078-0.385-0.416-0.661-0.808-0.659c-0.602,0-0.94,0.531-0.94,1.225c0,0.695,0.338,1.173,0.932,1.173
		c0.392-0.001,0.73-0.278,0.808-0.663c0.022-0.089,0.032-0.181,0.03-0.272L59.431,7.038z"/>
	<path fill="#FFFFFF" d="M63.534,5.492l0.667,1.99c0.076,0.228,0.154,0.508,0.208,0.725h0.022c0.061-0.216,0.127-0.492,0.198-0.734
		l0.579-1.98h1.006l-0.925,2.552c-0.51,1.388-0.852,2.002-1.296,2.384c-0.271,0.254-0.613,0.42-0.98,0.479l-0.215-0.791
		c0.198-0.052,0.383-0.14,0.549-0.259c0.215-0.152,0.39-0.354,0.509-0.589c0.034-0.049,0.056-0.106,0.061-0.166
		c-0.002-0.065-0.021-0.128-0.051-0.185l-1.357-3.404L63.534,5.492z"/>
	<path fill="#FFFFFF" d="M68.347,8.179c0.379,0.212,0.808,0.326,1.243,0.33c0.601,0,0.935-0.281,0.935-0.703
		c0-0.421-0.259-0.614-0.913-0.852c-0.848-0.303-1.389-0.755-1.389-1.494c0-0.838,0.703-1.48,1.814-1.48
		c0.427-0.012,0.85,0.077,1.235,0.259l-0.229,0.755c-0.315-0.163-0.664-0.248-1.018-0.246c-0.593,0-0.857,0.321-0.857,0.62
		c0,0.396,0.298,0.58,0.984,0.848C71.03,6.55,71.47,6.998,71.47,7.74c0,0.821-0.625,1.538-1.951,1.538
		c-0.481,0.002-0.957-0.107-1.387-0.321L68.347,8.179z"/>
	<path fill="#FFFFFF" d="M74.417,9.202L74.36,8.79h-0.026c-0.271,0.326-0.677,0.509-1.099,0.497
		c-0.605,0.037-1.126-0.425-1.162-1.03C72.07,8.23,72.07,8.205,72.07,8.179c0-0.935,0.83-1.409,2.197-1.401V6.726
		c0-0.242-0.098-0.646-0.752-0.646c-0.352,0-0.695,0.095-1.001,0.272l-0.181-0.61c0.41-0.224,0.874-0.336,1.341-0.326
		c1.191,0,1.533,0.751,1.533,1.56v1.343c-0.005,0.294,0.012,0.587,0.051,0.879L74.417,9.202z M74.301,7.389
		c-0.661,0-1.315,0.127-1.315,0.694c-0.027,0.269,0.171,0.505,0.437,0.531c0.032,0.003,0.063,0.003,0.093,0
		c0.33,0.006,0.625-0.199,0.735-0.509c0.02-0.067,0.029-0.137,0.029-0.206L74.301,7.389z"/>
	<path fill="#FFFFFF" d="M76.199,3.792h0.944v5.41h-0.944V3.792z"/>
	<path fill="#FFFFFF" d="M81.48,8.086c0,0.439,0,0.809,0.031,1.116h-0.822L80.64,8.636l0,0c-0.25,0.415-0.706,0.664-1.189,0.65
		c-0.677,0-1.296-0.404-1.296-1.616V5.474h0.935v2.02c0,0.615,0.203,1.01,0.695,1.01c0.304-0.005,0.579-0.185,0.706-0.46
		c0.032-0.094,0.051-0.191,0.054-0.291V5.514h0.936V8.086z"/>
	<path fill="#FFFFFF" d="M85.911,3.792v4.365c0,0.382,0,0.794,0.032,1.045h-0.84l-0.035-0.588l0,0
		c-0.244,0.436-0.715,0.696-1.213,0.672c-0.879,0-1.585-0.755-1.585-1.897c0-1.243,0.772-1.98,1.665-1.98
		c0.408-0.031,0.802,0.154,1.041,0.488l0,0V3.792H85.911z M84.976,7.038c-0.001-0.082-0.008-0.165-0.022-0.246
		c-0.078-0.385-0.415-0.661-0.808-0.659c-0.602,0-0.94,0.531-0.94,1.225c0,0.695,0.339,1.173,0.931,1.173
		c0.393-0.001,0.731-0.278,0.808-0.663c0.022-0.089,0.034-0.181,0.032-0.272V7.038z"/>
	<path fill="#FFFFFF" d="M89.468,4.064v5.138h-0.94V4.064H89.468z"/>
	<path fill="#FFFFFF" d="M90.554,6.594c0-0.439,0-0.782-0.031-1.103h0.822l0.047,0.553l0,0c0.256-0.414,0.715-0.658,1.2-0.637
		c0.646,0,1.316,0.439,1.316,1.59v2.195h-0.935V7.108c0-0.536-0.198-0.94-0.711-0.94c-0.339,0.009-0.633,0.234-0.729,0.558
		c-0.029,0.099-0.044,0.203-0.039,0.307v2.196h-0.94V6.594z"/>
	<path fill="#FFFFFF" d="M98.328,3.792v4.365c0,0.382,0,0.794,0.031,1.045H97.52l-0.039-0.588l0,0
		c-0.245,0.437-0.716,0.698-1.217,0.672c-0.878,0-1.586-0.755-1.586-1.897c0-1.243,0.769-1.98,1.66-1.98
		c0.41-0.031,0.806,0.154,1.045,0.488l0,0V3.792H98.328z M97.388,7.038c0.002-0.083-0.006-0.165-0.022-0.246
		c-0.078-0.385-0.415-0.661-0.808-0.659c-0.602,0-0.936,0.531-0.936,1.225c0,0.695,0.334,1.173,0.926,1.173
		c0.395,0.001,0.734-0.277,0.81-0.663c0.022-0.089,0.034-0.181,0.03-0.272V7.038z"/>
	<path fill="#FFFFFF" d="M102.654,8.086c0,0.439,0,0.809,0.032,1.116h-0.826l-0.044-0.566l0,0c-0.246,0.418-0.702,0.669-1.186,0.65
		c-0.682,0-1.318-0.404-1.318-1.616V5.474h0.935v2.02c0,0.615,0.198,1.01,0.695,1.01c0.311,0.003,0.592-0.178,0.721-0.46
		c0.034-0.094,0.052-0.191,0.052-0.291V5.514h0.939V8.086z"/>
	<path fill="#FFFFFF" d="M103.621,8.341c0.291,0.164,0.615,0.255,0.949,0.269c0.413,0,0.597-0.172,0.597-0.414
		c0-0.241-0.154-0.382-0.61-0.54c-0.726-0.255-1.028-0.65-1.023-1.084c0-0.654,0.545-1.164,1.406-1.164
		c0.34-0.004,0.677,0.071,0.983,0.22l-0.185,0.659c-0.24-0.136-0.511-0.21-0.786-0.215c-0.335,0-0.518,0.162-0.518,0.391
		c0,0.228,0.176,0.352,0.649,0.518c0.668,0.242,0.979,0.588,0.988,1.138c0,0.667-0.522,1.155-1.506,1.155
		c-0.394,0.008-0.781-0.081-1.131-0.259L103.621,8.341z"/>
	<path fill="#FFFFFF" d="M107.916,4.433v1.059h0.879V6.19h-0.879v1.638c0,0.439,0.119,0.689,0.48,0.689
		c0.122,0.002,0.244-0.013,0.364-0.047v0.715c-0.221,0.068-0.452,0.1-0.682,0.093c-0.3,0.013-0.591-0.097-0.808-0.304
		c-0.223-0.298-0.323-0.667-0.286-1.036V6.181h-0.535V5.492h0.535V4.652L107.916,4.433z"/>
	<path fill="#FFFFFF" d="M109.514,6.686c0-0.5,0-0.878-0.029-1.194h0.835v0.707h0.029c0.137-0.456,0.549-0.775,1.023-0.791
		c0.073-0.01,0.146-0.01,0.22,0v0.878c-0.089-0.019-0.181-0.029-0.271-0.031c-0.42-0.009-0.779,0.297-0.84,0.712
		c-0.018,0.094-0.027,0.189-0.029,0.285v1.924h-0.938V6.686z"/>
	<path fill="#FFFFFF" d="M113.222,4.455c-0.026,0.29-0.283,0.504-0.573,0.478c-0.254-0.023-0.454-0.224-0.477-0.478
		c-0.005-0.279,0.218-0.509,0.496-0.514c0.01,0,0.02,0,0.031,0c0.273-0.015,0.508,0.195,0.522,0.469
		C113.222,4.425,113.222,4.44,113.222,4.455z M112.224,9.202v-3.71h0.944v3.71H112.224z"/>
	<path fill="#FFFFFF" d="M116.262,9.202l-0.063-0.413h-0.022c-0.269,0.325-0.671,0.508-1.091,0.497
		c-0.608,0.037-1.131-0.427-1.167-1.035c-0.003-0.023-0.003-0.047-0.003-0.072c0-0.935,0.83-1.409,2.197-1.401V6.726
		c0-0.242-0.098-0.646-0.752-0.646c-0.352,0-0.698,0.095-1.001,0.272l-0.181-0.61c0.41-0.224,0.872-0.336,1.341-0.326
		c1.188,0,1.53,0.751,1.53,1.56v1.343c-0.002,0.294,0.015,0.587,0.054,0.879L116.262,9.202z M116.142,7.389
		c-0.664,0-1.296,0.127-1.296,0.694c-0.022,0.271,0.178,0.509,0.449,0.531c0.029,0.002,0.056,0.002,0.083,0
		c0.329,0.007,0.625-0.198,0.734-0.509c0.02-0.067,0.029-0.137,0.029-0.206V7.389z"/>
	<path fill="#FFFFFF" d="M118.044,3.792h0.944v5.41h-0.944V3.792z"/>
	<path fill="#FFFFFF" d="M10.959,20.38c-1.919-0.632-3.703-1.315-5.328-1.989C7.276,19.361,9.08,20.035,10.959,20.38z"/>
	<path fill="#FFFFFF" d="M16.796,22.191c1.195,0.627,1.792,1.945,1.792,3.953c0,1.677-0.439,2.932-1.317,3.764
		c-0.879,0.83-2.599,1.246-5.161,1.241c-1.461-0.024-2.916-0.216-4.335-0.566c-1.143-0.286-2.263-0.657-3.351-1.111
		c-0.931-0.403-1.401-0.605-1.414-0.605l1.177,4.616c0.43,0.228,0.887,0.396,1.362,0.501c1.138,0.329,2.295,0.586,3.465,0.769
		c1.475,0.237,2.968,0.354,4.462,0.348c0.948,0,1.687,0,2.196-0.062c1.892-0.093,3.752-0.53,5.486-1.292
		c1.505-0.699,2.739-1.872,3.514-3.339c0.835-1.519,1.251-3.528,1.251-6.026c0-0.095,0-0.188,0-0.28
		c-3.448-0.642-6.636-1.357-9.597-2.144C16.489,22.037,16.647,22.099,16.796,22.191z"/>
	<path fill="#FFFFFF" d="M27.746,24.703c0.029,3.486,0.777,6.021,2.244,7.602c1.466,1.581,3.774,2.487,6.921,2.719
		c0.439,0.04,1.033,0.062,1.806,0.062c1.62,0.041,3.236-0.142,4.805-0.545c1.257-0.365,1.885-0.658,1.885-0.878l0.923-3.756
		c-0.744,0.596-1.572,1.074-2.46,1.419c-1.256,0.568-2.994,0.852-5.213,0.849c-1.819-0.085-3.073-0.998-3.76-2.741
		c-0.544-1.296-0.925-2.659-1.134-4.05c-2.059-0.289-4.066-0.605-6.007-0.943C27.746,24.527,27.746,24.611,27.746,24.703z"/>
	<path fill="#FFFFFF" d="M84.656,34.836h4.678v-8.18c-1.538,0.137-3.101,0.257-4.678,0.361V34.836z"/>
	<path fill="#FFFFFF" d="M96.404,34.836h4.69v-9.51c-1.528,0.22-3.074,0.439-4.676,0.61L96.404,34.836z"/>
	<path fill="#FFFFFF" d="M71.46,34.836h6.106v-7.467c-2.007,0.078-4.041,0.135-6.106,0.166V34.836z"/>
	<path fill="#FFFFFF" d="M47.045,25.1c0.022-0.152,0.049-0.41,0.079-0.789c0.031-0.376,0.049-0.83,0.049-1.369
		c0-2.864-0.586-5.137-1.758-6.817c-1.37-2.029-3.984-3.043-7.844-3.043c-3.221,0.032-5.66,0.978-7.317,2.837
		c-1.658,1.859-2.493,4.699-2.508,8.517c1.94,0.336,3.952,0.654,6.008,0.944c0-0.093-0.031-0.195-0.039-0.28H47.045z M38.151,15.809
		c3.329,0,4.994,2.14,4.994,6.422h-9.417C33.728,18.043,35.202,15.902,38.151,15.809z"/>
	<path fill="#FFFFFF" d="M99.338,14.728c-1.154-1.055-2.891-1.583-5.21-1.585c-1.066,0.012-2.121,0.23-3.105,0.646
		c-0.691,0.288-1.32,0.71-1.848,1.243c-0.439,0.439-0.633,0.69-0.643,0.712c-0.125-0.446-0.563-1-1.316-1.665
		c-0.754-0.664-2.045-0.996-3.874-0.996c-2.601,0-4.531,0.627-5.789,1.883v-1.756h-6.105v14.344c2.048-0.034,4.084-0.09,6.105-0.166
		v-7.424c0.156-0.735,0.457-1.434,0.877-2.057c0.506-0.837,1.406-1.316,2.693-1.448c1.208,0,2.099,0.276,2.666,0.831
		c0.566,0.545,0.876,1.301,0.856,2.085v7.644c1.577-0.104,3.14-0.225,4.678-0.361V19.77c0.193-0.711,0.513-1.382,0.94-1.98
		c0.527-0.805,1.405-1.244,2.634-1.318c2.344,0,3.516,0.972,3.516,2.917v6.563c1.585-0.19,3.149-0.393,4.678-0.613v-6.486
		C101.14,17.287,100.5,15.778,99.338,14.728z"/>
	<path fill="#FFFFFF" d="M120.722,14.847c-1.486-1.133-3.901-1.702-7.246-1.704c-1.428-0.014-2.851,0.16-4.233,0.519
		c-0.959,0.244-1.887,0.602-2.763,1.067c-0.664,0.382-0.992,0.61-0.992,0.685l-0.905,4.296c0.439-0.623,1.343-1.402,2.737-2.324
		c1.392-0.922,3.337-1.387,5.839-1.387c1.033-0.057,2.054,0.234,2.896,0.831c0.662,0.461,1.06,1.211,1.072,2.016
		c-0.034,0.84-0.469,1.614-1.167,2.08c-0.975,0.689-2.129,1.074-3.322,1.104c-3.118,0.234-5.46,0.896-7.026,1.985
		c-0.311,0.218-0.596,0.466-0.853,0.742c6.157-0.957,12.236-2.363,18.188-4.206v-1.24C122.986,17.545,122.153,15.878,120.722,14.847
		z"/>
	<path fill="#FFFFFF" d="M51.31,31.027c0.637,1.674,1.896,3.039,3.514,3.809c1.619,0.778,3.815,1.166,6.589,1.164
		c1.646-0.02,3.287-0.181,4.906-0.48c1.282-0.267,1.924-0.438,1.924-0.535l0.403-3.765c0,0.065-0.33,0.251-0.975,0.56
		c-0.833,0.371-1.7,0.661-2.591,0.859c-1.252,0.277-2.534,0.407-3.817,0.388c-1.854-0.14-3.079-1.042-3.676-2.71
		c-0.272-0.791-0.472-1.606-0.598-2.434c-2.214-0.094-4.398-0.211-6.553-0.348C50.58,28.732,50.874,29.904,51.31,31.027z"/>
	<path fill="#FFFFFF" d="M57.797,18.307c0.723-1.445,2.178-2.167,4.366-2.165c1.4,0,2.794,0.174,4.152,0.521
		c0.78,0.192,1.542,0.456,2.279,0.781l-0.681-3.282c-0.559-0.159-1.476-0.356-2.757-0.602c-1.433-0.265-2.884-0.412-4.34-0.439
		c-2.534,0-4.555,0.387-6.074,1.16c-1.484,0.743-2.658,1.988-3.312,3.515c-0.77,1.904-1.169,3.939-1.177,5.993
		c-0.007,1.245,0.066,2.49,0.22,3.726c2.152,0.142,4.336,0.256,6.553,0.347c-0.206-1.348-0.304-2.708-0.294-4.072
		C56.659,21.903,57.024,20.028,57.797,18.307z"/>
	<path fill="#FFFFFF" d="M115.522-3.209c0,0,26.499,8.736,15.791,34.434c0,0,1.121-11.73-2.871-19.984
		C124.619,3.344,115.522-3.209,115.522-3.209z"/>
	<path fill="#FFFFFF" d="M124.856-4c0,0,20.459,7.194,12.524,27.363c0,0,0.728-9.25-2.435-15.812C131.918,1.275,124.856-4,124.856-4
		z"/>
</g>
</svg>
